<?xml version="1.0" encoding="UTF-8" standalone="no"?>
<!DOCTYPE svg PUBLIC "-//W3C//DTD SVG 1.1//EN" "http://www.w3.org/Graphics/SVG/1.1/DTD/svg11.dtd">
<svg xmlns="http://www.w3.org/2000/svg" version="1.1" viewBox="0.00 0.00 1780.00 1178.00">
<g stroke-width="2.00" fill="none" stroke-linecap="butt">
<path stroke="#808080" vector-effect="non-scaling-stroke" d="
  M 342.06 0.00
  C 436.01 3.33 528.38 41.76 550.44 143.07
  C 556.05 168.82 556.43 199.41 549.92 225.78
  Q 534.38 288.77 477.32 322.02
  Q 471.39 325.47 465.17 328.69
  Q 464.63 328.97 465.20 329.20
  Q 473.23 332.36 481.03 335.98
  C 552.04 368.94 583.67 440.02 574.51 515.74
  Q 566.87 578.93 522.32 622.18
  C 473.58 669.49 403.59 682.95 338.25 682.97
  Q 169.13 683.03 0.00 682.99"
/>
<path stroke="#808080" vector-effect="non-scaling-stroke" d="
  M 293.44 266.22
  C 333.42 266.17 379.83 255.30 391.85 210.41
  Q 397.29 190.13 393.24 169.49
  C 384.98 127.39 344.95 111.64 306.49 111.52
  Q 269.47 111.41 159.98 111.54
  Q 159.50 111.54 159.50 112.02
  L 159.50 265.74
  Q 159.50 266.23 159.99 266.23
  Q 226.72 266.30 293.44 266.22"
/>
<path stroke="#808080" vector-effect="non-scaling-stroke" d="
  M 409.28 422.22
  C 393.09 386.38 356.34 370.90 318.99 370.77
  Q 285.59 370.65 159.98 370.79
  Q 159.50 370.79 159.50 371.27
  L 159.50 578.24
  Q 159.50 578.72 159.99 578.72
  Q 235.09 578.82 310.18 578.70
  Q 323.54 578.68 330.15 577.97
  C 375.65 573.08 409.47 546.50 417.42 499.68
  C 421.72 474.39 420.00 445.95 409.28 422.22"
/>
<path stroke="#808080" vector-effect="non-scaling-stroke" d="
  M 1151.79 0.00
  C 1151.18 7.02 1151.74 16.06 1151.74 20.91
  Q 1151.77 351.64 1151.74 682.45
  Q 1151.74 683.00 1152.29 683.00
  L 1310.00 683.00
  Q 1310.50 683.00 1310.50 682.50
  L 1310.50 425.00
  Q 1310.50 424.50 1311.00 424.50
  L 1380.49 424.50
  A 3.53 3.52 70.6 0 1 1383.24 425.82
  L 1588.84 682.59
  Q 1589.17 683.00 1589.69 683.00
  L 1773.42 683.00
  A 0.21 0.21 0.0 0 0 1773.59 682.66
  L 1566.73 424.41
  Q 1566.38 423.97 1566.92 423.85
  C 1650.32 405.51 1710.10 343.02 1722.22 257.75
  C 1728.20 215.64 1725.28 169.90 1710.23 130.28
  C 1677.43 43.96 1596.07 5.59 1508.50 0.73
  Q 1501.79 0.36 1495.06 0.00"
/>
<path stroke="#ffc480" vector-effect="non-scaling-stroke" d="
  M 0.00 945.00
  L 1779.23 945.00
  A 0.52 0.52 0.0 0 0 1779.75 944.48
  L 1779.75 787.74
  Q 1779.75 787.20 1779.21 787.20
  L 0.00 787.08"
/>
<path stroke="#808080" vector-effect="non-scaling-stroke" d="
  M 835.45 316.92
  L 994.30 317.41
  Q 994.75 317.41 994.75 316.96
  L 994.75 212.50
  A 0.50 0.50 0.0 0 0 994.25 212.00
  L 681.00 212.00
  Q 680.50 212.00 680.50 212.50
  L 680.50 315.00
  A 1.33 1.32 -66.5 0 0 680.85 315.90
  L 736.95 376.54
  A 0.55 0.54 -34.1 0 1 736.78 377.40
  C 721.07 384.79 703.72 392.21 689.40 401.06
  C 643.13 429.67 610.46 475.26 611.89 531.22
  C 613.40 590.12 648.48 642.97 702.60 666.70
  C 759.82 691.78 831.27 686.34 888.48 663.45
  C 908.11 655.60 924.75 644.56 941.55 631.91
  Q 941.95 631.61 942.28 632.00
  L 984.48 682.12
  A 1.07 1.05 69.6 0 0 985.29 682.50
  L 1124.27 682.50
  Q 1124.98 682.50 1124.53 681.94
  L 1011.82 543.63
  Q 1011.46 543.19 1011.82 542.74
  L 1056.85 487.34
  A 0.93 0.93 0.0 0 0 1056.85 486.16
  L 996.26 410.66
  Q 995.92 410.23 995.57 410.66
  L 950.36 466.36
  Q 950.00 466.80 949.66 466.35
  L 835.25 317.34
  A 0.26 0.26 0.0 0 1 835.45 316.92"
/>
<path stroke="#808080" vector-effect="non-scaling-stroke" d="
  M 781.75 1098.50
  L 781.75 1150.24
  Q 781.75 1150.73 782.24 1150.73
  L 800.23 1150.79
  A 0.77 0.77 0.0 0 0 801.00 1150.02
  L 801.00 1098.75
  A 0.75 0.75 0.0 0 1 801.75 1098.00
  L 819.50 1098.00
  Q 820.00 1098.00 820.00 1097.50
  L 820.00 1082.91
  A 0.59 0.59 0.0 0 0 819.42 1082.32
  L 801.69 1082.22
  Q 801.17 1082.21 801.13 1081.69
  C 800.06 1069.18 808.41 1065.78 819.01 1069.12
  Q 819.53 1069.28 819.66 1068.75
  L 823.01 1055.23
  Q 823.18 1054.55 822.54 1054.27
  Q 813.08 1050.14 803.32 1051.82
  C 787.33 1054.58 781.49 1067.10 781.78 1082.02
  A 0.52 0.52 0.0 0 1 781.24 1082.55
  L 771.30 1082.19
  A 0.77 0.77 0.0 0 0 770.50 1082.96
  L 770.50 1097.50
  Q 770.50 1098.00 771.00 1098.00
  L 781.25 1098.00
  Q 781.75 1098.00 781.75 1098.50"
/>
<path stroke="#808080" vector-effect="non-scaling-stroke" d="
  M 940.15 1089.20
  Q 939.01 1090.62 939.03 1088.80
  L 939.30 1054.00
  A 0.79 0.79 0.0 0 0 938.50 1053.21
  L 920.56 1053.35
  Q 919.97 1053.35 919.97 1053.94
  L 919.95 1150.60
  Q 919.95 1151.00 920.35 1151.00
  L 938.49 1151.00
  Q 939.08 1151.00 939.07 1150.41
  Q 938.84 1134.34 939.10 1118.30
  Q 939.26 1108.70 940.88 1104.96
  C 945.69 1093.87 964.28 1094.44 965.06 1108.26
  Q 965.66 1118.91 964.83 1150.35
  Q 964.81 1151.00 965.47 1151.00
  L 983.98 1151.00
  Q 984.48 1151.00 984.48 1150.51
  Q 984.56 1131.10 984.47 1111.71
  C 984.40 1097.17 979.94 1083.50 963.58 1080.89
  Q 948.67 1078.52 940.15 1089.20"
/>
<path stroke="#808080" vector-effect="non-scaling-stroke" d="
  M 466.25 1143.25
  A 0.34 0.34 0.0 0 1 466.85 1143.04
  C 473.28 1151.05 482.30 1154.28 492.61 1152.96
  C 532.66 1147.85 528.54 1076.59 484.57 1081.08
  Q 474.27 1082.13 467.25 1090.90
  Q 466.75 1091.53 466.75 1090.73
  L 466.75 1054.25
  A 0.50 0.50 0.0 0 0 466.25 1053.75
  L 448.25 1053.75
  A 0.75 0.75 0.0 0 0 447.50 1054.50
  L 447.50 1150.75
  Q 447.50 1151.25 448.00 1151.25
  L 465.75 1151.25
  Q 466.25 1151.25 466.25 1150.75
  L 466.25 1143.25"
/>
<path stroke="#808080" vector-effect="non-scaling-stroke" d="
  M 1460.25 1118.25
  L 1460.25 1131.51
  A 1.35 1.35 0.0 0 1 1459.27 1132.81
  C 1442.87 1137.54 1423.20 1134.33 1418.00 1115.52
  C 1409.15 1083.52 1440.93 1064.84 1465.46 1084.53
  A 0.52 0.52 0.0 0 0 1466.20 1084.45
  L 1476.24 1071.48
  A 1.29 1.29 0.0 0 0 1476.07 1069.72
  C 1461.58 1057.14 1440.63 1054.64 1423.08 1061.67
  C 1402.19 1070.05 1392.93 1092.14 1396.25 1114.00
  C 1402.36 1154.20 1446.61 1161.49 1477.14 1145.18
  C 1480.35 1143.46 1479.01 1141.13 1479.01 1138.37
  Q 1479.00 1123.44 1478.96 1108.49
  Q 1478.94 1100.31 1470.74 1100.26
  Q 1457.01 1100.18 1443.23 1100.28
  Q 1442.75 1100.29 1442.75 1100.77
  L 1442.75 1117.25
  A 0.50 0.50 0.0 0 0 1443.25 1117.75
  L 1459.75 1117.75
  Q 1460.25 1117.75 1460.25 1118.25"
/>
<path stroke="#808080" vector-effect="non-scaling-stroke" d="
  M 1158.67 1131.75
  A 0.31 0.31 0.0 0 1 1158.97 1131.96
  L 1165.09 1150.79
  A 0.31 0.31 0.0 0 0 1165.39 1151.00
  L 1186.79 1151.00
  A 0.31 0.31 0.0 0 0 1187.08 1150.58
  L 1153.38 1060.20
  A 0.31 0.31 0.0 0 0 1153.08 1060.00
  L 1131.27 1060.00
  A 0.31 0.31 0.0 0 0 1130.97 1060.20
  L 1097.24 1150.58
  A 0.31 0.31 0.0 0 0 1097.53 1151.00
  L 1118.85 1151.00
  A 0.31 0.31 0.0 0 0 1119.15 1150.78
  L 1125.14 1131.97
  A 0.31 0.31 0.0 0 1 1125.44 1131.75
  L 1158.67 1131.75"
/>
<path stroke="#808080" vector-effect="non-scaling-stroke" d="
  M 1252.63 1100.47
  Q 1263.65 1092.23 1260.76 1078.18
  C 1258.38 1066.56 1246.43 1060.54 1235.23 1060.35
  Q 1215.92 1060.02 1196.52 1059.98
  Q 1196.00 1059.98 1196.00 1060.50
  L 1196.00 1150.48
  Q 1196.00 1150.94 1196.46 1150.95
  Q 1220.34 1151.14 1236.32 1150.90
  C 1255.92 1150.61 1271.98 1139.40 1267.80 1117.67
  C 1266.12 1108.93 1260.38 1104.60 1252.69 1101.08
  Q 1252.15 1100.83 1252.63 1100.47"
/>
<path stroke="#808080" vector-effect="non-scaling-stroke" d="
  M 1338.40 1101.09
  A 0.31 0.31 0.0 0 1 1338.33 1100.53
  C 1344.44 1096.64 1347.38 1090.92 1347.47 1083.60
  C 1347.66 1067.81 1333.79 1060.19 1319.50 1060.24
  Q 1300.96 1060.30 1282.63 1059.91
  A 0.62 0.61 0.5 0 0 1282.00 1060.52
  L 1282.00 1150.25
  Q 1282.00 1150.90 1282.65 1150.91
  Q 1302.48 1151.20 1322.32 1150.94
  C 1340.25 1150.70 1357.34 1140.70 1354.41 1120.27
  Q 1352.32 1105.73 1338.40 1101.09"
/>
<path stroke="#808080" vector-effect="non-scaling-stroke" d="
  M 61.85 1132.25
  A 0.31 0.31 0.0 0 1 62.15 1132.46
  L 68.19 1151.04
  A 0.31 0.31 0.0 0 0 68.49 1151.25
  L 89.94 1151.25
  A 0.31 0.31 0.0 0 0 90.23 1150.83
  L 56.50 1060.45
  A 0.31 0.31 0.0 0 0 56.20 1060.25
  L 34.45 1060.25
  A 0.31 0.31 0.0 0 0 34.15 1060.45
  L 0.43 1150.83
  A 0.31 0.31 0.0 0 0 0.72 1151.25
  L 22.01 1151.25
  A 0.31 0.31 0.0 0 0 22.31 1151.03
  L 28.24 1132.47
  A 0.31 0.31 0.0 0 1 28.54 1132.25
  L 61.85 1132.25"
/>
<path stroke="#808080" vector-effect="non-scaling-stroke" d="
  M 867.22 1097.24
  Q 867.17 1112.88 867.69 1128.49
  C 868.48 1152.32 891.40 1156.37 909.39 1147.81
  Q 909.89 1147.58 909.77 1147.04
  L 906.89 1133.68
  Q 906.76 1133.07 906.18 1133.31
  C 898.96 1136.27 886.98 1137.67 886.84 1125.97
  Q 886.67 1111.62 886.77 1097.24
  Q 886.78 1096.71 887.30 1096.72
  L 906.07 1096.82
  Q 906.72 1096.82 906.72 1096.18
  L 906.68 1081.84
  Q 906.68 1081.25 906.09 1081.25
  L 887.28 1081.25
  Q 886.75 1081.25 886.75 1080.72
  L 886.75 1064.50
  A 0.50 0.50 0.0 0 0 886.25 1064.00
  L 869.57 1064.00
  A 0.76 0.76 0.0 0 0 868.81 1064.83
  C 869.10 1067.84 870.22 1079.88 866.00 1080.78
  Q 862.60 1081.50 856.82 1081.20
  A 0.54 0.54 0.0 0 0 856.25 1081.74
  L 856.25 1096.25
  Q 856.25 1096.75 856.75 1096.75
  L 866.73 1096.75
  Q 867.22 1096.75 867.22 1097.24"
/>
<path stroke="#808080" vector-effect="non-scaling-stroke" d="
  M 691.17 1102.88
  C 685.58 1119.42 691.79 1140.76 709.06 1148.19
  C 733.69 1158.78 762.23 1145.52 763.27 1116.80
  C 764.82 1074.15 703.96 1065.04 691.17 1102.88"
/>
<path stroke="#808080" vector-effect="non-scaling-stroke" d="
  M 1015.61 1121.05
  A 0.45 0.45 0.0 0 1 1016.05 1120.50
  L 1061.48 1120.50
  Q 1061.93 1120.50 1061.95 1120.05
  C 1062.83 1100.25 1057.74 1081.90 1035.10 1079.46
  C 1014.19 1077.20 998.69 1090.44 996.48 1110.82
  C 994.07 1132.96 1006.46 1149.09 1028.48 1151.39
  C 1039.60 1152.56 1051.69 1150.75 1061.04 1144.39
  Q 1061.54 1144.05 1061.29 1143.50
  L 1055.63 1130.70
  Q 1055.50 1130.43 1055.24 1130.57
  C 1041.96 1137.95 1020.03 1140.71 1015.61 1121.05"
/>
<path stroke="#808080" vector-effect="non-scaling-stroke" d="
  M 1543.00 1120.99
  C 1546.72 1161.61 1608.99 1163.37 1616.01 1123.56
  C 1625.80 1068.05 1537.75 1063.74 1543.00 1120.99"
/>
<path stroke="#808080" vector-effect="non-scaling-stroke" d="
  M 1726.82 1142.31
  C 1737.42 1156.02 1758.80 1155.35 1770.13 1143.25
  C 1786.57 1125.69 1782.33 1088.21 1756.95 1081.06
  C 1744.89 1077.67 1735.01 1081.32 1726.34 1090.01
  Q 1725.80 1090.56 1725.82 1089.79
  L 1726.07 1082.51
  A 0.80 0.79 0.7 0 0 1725.26 1081.69
  L 1707.78 1081.94
  Q 1707.25 1081.95 1707.25 1082.47
  L 1707.25 1177.00
  Q 1707.25 1177.75 1708.00 1177.75
  L 1726.14 1177.75
  Q 1726.78 1177.75 1726.77 1177.11
  L 1726.70 1142.35
  Q 1726.70 1142.16 1726.82 1142.31"
/>
<path stroke="#808080" vector-effect="non-scaling-stroke" d="
  M 146.50 1090.76
  A 0.35 0.35 0.0 0 1 145.87 1090.54
  L 146.05 1083.41
  Q 146.07 1082.75 145.41 1082.75
  L 129.00 1082.75
  Q 128.50 1082.75 128.50 1083.25
  L 128.50 1150.75
  Q 128.50 1151.25 129.00 1151.25
  L 146.97 1151.25
  Q 147.45 1151.25 147.46 1150.78
  C 147.68 1140.94 147.73 1131.67 147.55 1121.32
  C 147.37 1111.12 148.31 1095.02 163.66 1097.82
  C 171.44 1099.23 172.50 1105.83 172.63 1113.13
  Q 172.96 1131.96 172.64 1150.84
  Q 172.63 1151.25 173.04 1151.25
  L 191.47 1151.25
  A 0.55 0.55 0.0 0 0 192.02 1150.70
  Q 191.95 1134.40 192.03 1118.05
  C 192.08 1107.77 192.82 1098.71 204.52 1097.73
  C 213.90 1096.95 217.02 1104.04 217.01 1112.25
  Q 216.97 1131.48 217.01 1150.75
  Q 217.01 1151.25 217.51 1151.25
  L 235.74 1151.25
  Q 236.23 1151.25 236.23 1150.76
  Q 236.31 1142.36 236.19 1133.98
  C 236.07 1125.84 236.98 1111.66 235.38 1101.35
  C 231.55 1076.54 198.08 1074.18 186.78 1094.02
  Q 186.43 1094.63 186.15 1093.98
  C 178.83 1076.86 156.94 1077.07 146.50 1090.76"
/>
<path stroke="#808080" vector-effect="non-scaling-stroke" d="
  M 267.76 1122.24
  L 312.79 1122.19
  Q 313.36 1122.19 313.40 1121.62
  C 314.54 1103.04 309.43 1083.99 287.90 1081.27
  C 267.72 1078.73 251.25 1089.92 248.33 1110.53
  C 245.32 1131.70 255.02 1148.74 276.71 1152.43
  C 288.92 1154.50 301.66 1153.06 312.25 1146.24
  A 1.09 1.09 0.0 0 0 312.66 1144.89
  L 307.22 1132.54
  A 0.52 0.52 0.0 0 0 306.49 1132.29
  C 293.34 1139.40 271.42 1142.31 267.27 1122.85
  Q 267.14 1122.24 267.76 1122.24"
/>
<path stroke="#808080" vector-effect="non-scaling-stroke" d="
  M 343.05 1090.98
  L 342.98 1083.24
  Q 342.97 1082.75 342.48 1082.75
  L 326.00 1082.75
  Q 325.50 1082.75 325.50 1083.25
  L 325.50 1150.75
  Q 325.50 1151.25 326.00 1151.25
  L 344.24 1151.25
  Q 344.75 1151.25 344.75 1150.74
  Q 344.74 1132.59 344.78 1114.45
  C 344.80 1104.47 349.78 1095.62 361.26 1098.04
  C 368.77 1099.62 369.83 1107.23 369.81 1113.50
  Q 369.74 1132.11 369.75 1150.73
  Q 369.75 1151.25 370.26 1151.25
  L 388.23 1151.25
  Q 388.80 1151.25 388.80 1150.68
  Q 388.69 1127.35 389.13 1111.79
  Q 389.45 1100.65 398.81 1098.11
  C 409.96 1095.08 413.72 1103.08 413.88 1112.84
  Q 414.20 1131.83 413.90 1150.84
  Q 413.89 1151.25 414.30 1151.25
  L 432.75 1151.25
  Q 433.32 1151.25 433.31 1150.69
  Q 433.04 1129.27 432.96 1107.85
  C 432.90 1093.38 424.88 1081.45 409.28 1081.00
  Q 392.16 1080.51 383.68 1093.76
  Q 383.44 1094.14 383.23 1093.74
  Q 373.60 1075.57 353.48 1082.77
  Q 347.45 1084.93 343.58 1091.12
  Q 343.06 1091.95 343.05 1090.98"
/>
<path stroke="#808080" vector-effect="non-scaling-stroke" d="
  M 548.96 1122.26
  L 594.14 1121.98
  Q 594.67 1121.97 594.72 1121.45
  C 596.66 1102.80 589.86 1083.24 568.58 1081.15
  C 547.54 1079.08 531.89 1091.31 529.44 1111.77
  C 525.11 1147.90 558.82 1160.67 587.44 1149.69
  Q 590.58 1148.48 593.96 1145.88
  Q 594.38 1145.56 594.17 1145.07
  L 588.67 1132.56
  Q 588.42 1131.99 587.87 1132.29
  C 574.53 1139.58 552.83 1142.18 548.63 1122.67
  Q 548.55 1122.26 548.96 1122.26"
/>
<path stroke="#808080" vector-effect="non-scaling-stroke" d="
  M 1510.50 1092.74
  L 1510.50 1083.00
  A 0.75 0.75 0.0 0 0 1509.75 1082.25
  L 1493.25 1082.25
  Q 1492.76 1082.25 1492.76 1082.75
  L 1492.74 1150.37
  Q 1492.74 1151.00 1493.37 1151.00
  L 1511.28 1151.00
  Q 1511.98 1151.00 1511.98 1150.30
  Q 1512.02 1133.13 1512.05 1116.02
  C 1512.07 1101.82 1523.94 1097.85 1536.09 1099.89
  Q 1536.78 1100.00 1536.78 1099.31
  L 1536.74 1082.96
  A 0.75 0.74 11.2 0 0 1536.27 1082.27
  Q 1534.61 1081.60 1533.21 1081.50
  Q 1518.37 1080.41 1510.92 1092.86
  Q 1510.50 1093.55 1510.50 1092.74"
/>
<path stroke="#808080" vector-effect="non-scaling-stroke" d="
  M 624.37 1093.88
  L 624.26 1083.25
  Q 624.25 1082.75 623.75 1082.75
  L 607.25 1082.75
  A 0.50 0.50 0.0 0 0 606.75 1083.25
  L 606.75 1150.75
  Q 606.75 1151.25 607.25 1151.25
  L 625.50 1151.25
  Q 626.02 1151.25 626.02 1150.72
  Q 625.95 1136.98 626.04 1123.28
  Q 626.11 1112.71 627.64 1109.08
  C 631.66 1099.60 640.65 1099.05 650.50 1100.19
  Q 651.00 1100.25 651.00 1099.75
  L 651.00 1083.22
  A 0.81 0.80 -84.3 0 0 650.36 1082.43
  Q 632.92 1078.85 624.67 1093.95
  A 0.16 0.16 0.0 0 1 624.37 1093.88"
/>
<path stroke="#808080" vector-effect="non-scaling-stroke" d="
  M 1675.00 1143.01
  L 1675.00 1150.50
  Q 1675.00 1151.00 1675.50 1151.00
  L 1691.88 1151.00
  A 0.63 0.62 -90.0 0 0 1692.50 1150.37
  L 1692.50 1083.25
  Q 1692.50 1082.50 1691.75 1082.50
  L 1674.02 1082.50
  Q 1673.52 1082.50 1673.52 1083.00
  Q 1673.48 1098.13 1673.43 1113.25
  C 1673.41 1123.27 1673.12 1134.62 1661.89 1136.25
  C 1653.45 1137.48 1647.48 1132.37 1647.49 1123.72
  Q 1647.51 1103.43 1647.50 1083.02
  A 0.52 0.52 0.0 0 0 1646.98 1082.50
  L 1628.76 1082.50
  Q 1628.27 1082.50 1628.27 1082.99
  Q 1628.20 1103.21 1628.28 1123.41
  C 1628.34 1136.95 1633.31 1149.39 1647.86 1152.54
  C 1658.97 1154.95 1667.48 1151.43 1674.59 1142.86
  Q 1675.00 1142.37 1675.00 1143.01"
/>
<path stroke="#808080" vector-effect="non-scaling-stroke" d="
  M 1565.06 256.06
  Q 1574.79 227.54 1567.75 195.98
  C 1557.00 147.76 1513.73 130.27 1469.00 130.26
  Q 1389.18 130.24 1309.73 130.25
  A 0.73 0.73 0.0 0 0 1309.00 130.98
  L 1309.00 312.99
  A 0.51 0.50 90.0 0 0 1309.50 313.50
  Q 1388.15 313.57 1466.81 313.29
  C 1507.89 313.15 1550.64 298.36 1565.06 256.06"
/>
<path stroke="#808080" vector-effect="non-scaling-stroke" d="
  M 733.00 530.69
  C 738.59 578.31 798.29 595.78 836.00 577.26
  Q 857.34 566.78 877.39 553.84
  Q 877.81 553.57 877.50 553.17
  L 799.85 454.55
  Q 799.45 454.04 798.86 454.31
  C 769.32 467.80 728.51 492.41 733.00 530.69"
/>
<path stroke="#808080" vector-effect="non-scaling-stroke" d="
  M 483.1759 1136.6200
  A 19.52 17.38 90.1 0 0 500.5900 1117.1303
  A 19.52 17.38 90.1 0 0 483.2441 1097.5800
  A 19.52 17.38 90.1 0 0 465.8300 1117.0697
  A 19.52 17.38 90.1 0 0 483.1759 1136.6200"
/>
<path stroke="#808080" vector-effect="non-scaling-stroke" d="
  M 1130.72 1115.08
  A 0.35 0.35 0.0 0 0 1131.05 1115.54
  L 1153.13 1115.46
  A 0.35 0.35 0.0 0 0 1153.46 1115.00
  L 1142.30 1080.92
  A 0.35 0.35 0.0 0 0 1141.64 1080.93
  L 1130.72 1115.08"
/>
<path stroke="#808080" vector-effect="non-scaling-stroke" d="
  M 1215.94 1076.82
  L 1216.00 1094.50
  A 0.82 0.82 0.0 0 0 1216.82 1095.31
  L 1230.64 1095.26
  A 11.38 9.37 -0.2 0 0 1241.99 1085.85
  L 1241.99 1085.27
  A 11.38 9.37 -0.2 0 0 1230.58 1075.94
  L 1216.76 1075.99
  A 0.82 0.82 0.0 0 0 1215.94 1076.82"
/>
<path stroke="#808080" vector-effect="non-scaling-stroke" d="
  M 1216.09 1111.50
  L 1216.13 1134.12
  A 0.61 0.61 0.0 0 0 1216.74 1134.73
  L 1234.20 1134.70
  A 13.83 10.85 -0.1 0 0 1248.01 1123.82
  L 1248.01 1121.68
  A 13.83 10.85 -0.1 0 0 1234.16 1110.86
  L 1216.70 1110.89
  A 0.61 0.61 0.0 0 0 1216.09 1111.50"
/>
<path stroke="#808080" vector-effect="non-scaling-stroke" d="
  M 1301.90 1076.89
  L 1301.96 1094.41
  A 0.92 0.92 0.0 0 0 1302.88 1095.32
  L 1316.70 1095.27
  A 11.34 8.82 -0.2 0 0 1328.01 1086.41
  L 1328.01 1084.69
  A 11.34 8.82 -0.2 0 0 1316.64 1075.91
  L 1302.82 1075.96
  A 0.92 0.92 0.0 0 0 1301.90 1076.89"
/>
<path stroke="#808080" vector-effect="non-scaling-stroke" d="
  M 1302.04 1111.42
  L 1301.96 1134.06
  A 0.61 0.61 0.0 0 0 1302.57 1134.68
  L 1320.32 1134.74
  A 13.90 10.97 0.2 0 0 1334.26 1123.82
  L 1334.26 1121.90
  A 13.90 10.97 0.2 0 0 1320.40 1110.88
  L 1302.65 1110.82
  A 0.61 0.61 0.0 0 0 1302.04 1111.42"
/>
<path stroke="#808080" vector-effect="non-scaling-stroke" d="
  M 33.83 1115.37
  A 0.32 0.32 0.0 0 0 34.14 1115.79
  L 56.33 1115.71
  A 0.32 0.32 0.0 0 0 56.63 1115.29
  L 45.42 1081.22
  A 0.32 0.32 0.0 0 0 44.81 1081.23
  L 33.83 1115.37"
/>
<path stroke="#808080" vector-effect="non-scaling-stroke" d="
  M 726.2540 1134.9700
  A 19.49 17.48 89.9 0 0 743.7000 1115.4495
  A 19.49 17.48 89.9 0 0 726.1860 1095.9900
  A 19.49 17.48 89.9 0 0 708.7400 1115.5105
  A 19.49 17.48 89.9 0 0 726.2540 1134.9700"
/>
<path stroke="#808080" vector-effect="non-scaling-stroke" d="
  M 1016.08 1108.23
  L 1044.08 1107.89
  A 0.14 0.14 0.0 0 0 1044.22 1107.75
  L 1044.22 1107.71
  A 13.47 13.40 -0.7 0 0 1030.59 1094.47
  L 1029.25 1094.49
  A 13.47 13.40 -0.7 0 0 1015.94 1108.05
  L 1015.94 1108.09
  A 0.14 0.14 0.0 0 0 1016.08 1108.23"
/>
<path stroke="#808080" vector-effect="non-scaling-stroke" d="
  M 1579.6700 1135.6600
  A 19.50 17.47 90.0 0 0 1597.1400 1116.1600
  A 19.50 17.47 90.0 0 0 1579.6700 1096.6600
  A 19.50 17.47 90.0 0 0 1562.2000 1116.1600
  A 19.50 17.47 90.0 0 0 1579.6700 1135.6600"
/>
<path stroke="#808080" vector-effect="non-scaling-stroke" d="
  M 1742.8518 1135.6899
  A 19.53 17.37 90.2 0 0 1760.2899 1116.2206
  A 19.53 17.37 90.2 0 0 1742.9882 1096.6301
  A 19.53 17.37 90.2 0 0 1725.5501 1116.0994
  A 19.53 17.37 90.2 0 0 1742.8518 1135.6899"
/>
<path stroke="#808080" vector-effect="non-scaling-stroke" d="
  M 267.60 1109.58
  L 295.68 1109.44
  A 0.02 0.02 0.0 0 0 295.70 1109.42
  L 295.69 1109.36
  A 13.78 13.44 -0.3 0 0 281.84 1095.99
  L 281.28 1095.99
  A 13.78 13.44 -0.3 0 0 267.58 1109.50
  L 267.58 1109.56
  A 0.02 0.02 0.0 0 0 267.60 1109.58"
/>
<path stroke="#808080" vector-effect="non-scaling-stroke" d="
  M 549.05 1109.53
  L 576.87 1109.49
  A 0.17 0.17 0.0 0 0 577.04 1109.32
  L 577.04 1109.22
  A 13.88 13.25 -0.1 0 0 563.14 1095.99
  L 562.74 1095.99
  A 13.88 13.25 -0.1 0 0 548.88 1109.26
  L 548.88 1109.36
  A 0.17 0.17 0.0 0 0 549.05 1109.53"
/>
</g>
<path fill="#000000" d="
  M 0.00 0.00
  L 342.06 0.00
  C 436.01 3.33 528.38 41.76 550.44 143.07
  C 556.05 168.82 556.43 199.41 549.92 225.78
  Q 534.38 288.77 477.32 322.02
  Q 471.39 325.47 465.17 328.69
  Q 464.63 328.97 465.20 329.20
  Q 473.23 332.36 481.03 335.98
  C 552.04 368.94 583.67 440.02 574.51 515.74
  Q 566.87 578.93 522.32 622.18
  C 473.58 669.49 403.59 682.95 338.25 682.97
  Q 169.13 683.03 0.00 682.99
  L 0.00 0.00
  Z
  M 293.44 266.22
  C 333.42 266.17 379.83 255.30 391.85 210.41
  Q 397.29 190.13 393.24 169.49
  C 384.98 127.39 344.95 111.64 306.49 111.52
  Q 269.47 111.41 159.98 111.54
  Q 159.50 111.54 159.50 112.02
  L 159.50 265.74
  Q 159.50 266.23 159.99 266.23
  Q 226.72 266.30 293.44 266.22
  Z
  M 409.28 422.22
  C 393.09 386.38 356.34 370.90 318.99 370.77
  Q 285.59 370.65 159.98 370.79
  Q 159.50 370.79 159.50 371.27
  L 159.50 578.24
  Q 159.50 578.72 159.99 578.72
  Q 235.09 578.82 310.18 578.70
  Q 323.54 578.68 330.15 577.97
  C 375.65 573.08 409.47 546.50 417.42 499.68
  C 421.72 474.39 420.00 445.95 409.28 422.22
  Z"
/>
<path fill="#ffffff" d="
  M 342.06 0.00
  L 1151.79 0.00
  C 1151.18 7.02 1151.74 16.06 1151.74 20.91
  Q 1151.77 351.64 1151.74 682.45
  Q 1151.74 683.00 1152.29 683.00
  L 1310.00 683.00
  Q 1310.50 683.00 1310.50 682.50
  L 1310.50 425.00
  Q 1310.50 424.50 1311.00 424.50
  L 1380.49 424.50
  A 3.53 3.52 70.6 0 1 1383.24 425.82
  L 1588.84 682.59
  Q 1589.17 683.00 1589.69 683.00
  L 1773.42 683.00
  A 0.21 0.21 0.0 0 0 1773.59 682.66
  L 1566.73 424.41
  Q 1566.38 423.97 1566.92 423.85
  C 1650.32 405.51 1710.10 343.02 1722.22 257.75
  C 1728.20 215.64 1725.28 169.90 1710.23 130.28
  C 1677.43 43.96 1596.07 5.59 1508.50 0.73
  Q 1501.79 0.36 1495.06 0.00
  L 1780.00 0.00
  L 1780.00 1178.00
  L 0.00 1178.00
  L 0.00 945.00
  L 1779.23 945.00
  A 0.52 0.52 0.0 0 0 1779.75 944.48
  L 1779.75 787.74
  Q 1779.75 787.20 1779.21 787.20
  L 0.00 787.08
  L 0.00 682.99
  Q 169.13 683.03 338.25 682.97
  C 403.59 682.95 473.58 669.49 522.32 622.18
  Q 566.87 578.93 574.51 515.74
  C 583.67 440.02 552.04 368.94 481.03 335.98
  Q 473.23 332.36 465.20 329.20
  Q 464.63 328.97 465.17 328.69
  Q 471.39 325.47 477.32 322.02
  Q 534.38 288.77 549.92 225.78
  C 556.43 199.41 556.05 168.82 550.44 143.07
  C 528.38 41.76 436.01 3.33 342.06 0.00
  Z
  M 835.45 316.92
  L 994.30 317.41
  Q 994.75 317.41 994.75 316.96
  L 994.75 212.50
  A 0.50 0.50 0.0 0 0 994.25 212.00
  L 681.00 212.00
  Q 680.50 212.00 680.50 212.50
  L 680.50 315.00
  A 1.33 1.32 -66.5 0 0 680.85 315.90
  L 736.95 376.54
  A 0.55 0.54 -34.1 0 1 736.78 377.40
  C 721.07 384.79 703.72 392.21 689.40 401.06
  C 643.13 429.67 610.46 475.26 611.89 531.22
  C 613.40 590.12 648.48 642.97 702.60 666.70
  C 759.82 691.78 831.27 686.34 888.48 663.45
  C 908.11 655.60 924.75 644.56 941.55 631.91
  Q 941.95 631.61 942.28 632.00
  L 984.48 682.12
  A 1.07 1.05 69.6 0 0 985.29 682.50
  L 1124.27 682.50
  Q 1124.98 682.50 1124.53 681.94
  L 1011.82 543.63
  Q 1011.46 543.19 1011.82 542.74
  L 1056.85 487.34
  A 0.93 0.93 0.0 0 0 1056.85 486.16
  L 996.26 410.66
  Q 995.92 410.23 995.57 410.66
  L 950.36 466.36
  Q 950.00 466.80 949.66 466.35
  L 835.25 317.34
  A 0.26 0.26 0.0 0 1 835.45 316.92
  Z
  M 781.75 1098.50
  L 781.75 1150.24
  Q 781.75 1150.73 782.24 1150.73
  L 800.23 1150.79
  A 0.77 0.77 0.0 0 0 801.00 1150.02
  L 801.00 1098.75
  A 0.75 0.75 0.0 0 1 801.75 1098.00
  L 819.50 1098.00
  Q 820.00 1098.00 820.00 1097.50
  L 820.00 1082.91
  A 0.59 0.59 0.0 0 0 819.42 1082.32
  L 801.69 1082.22
  Q 801.17 1082.21 801.13 1081.69
  C 800.06 1069.18 808.41 1065.78 819.01 1069.12
  Q 819.53 1069.28 819.66 1068.75
  L 823.01 1055.23
  Q 823.18 1054.55 822.54 1054.27
  Q 813.08 1050.14 803.32 1051.82
  C 787.33 1054.58 781.49 1067.10 781.78 1082.02
  A 0.52 0.52 0.0 0 1 781.24 1082.55
  L 771.30 1082.19
  A 0.77 0.77 0.0 0 0 770.50 1082.96
  L 770.50 1097.50
  Q 770.50 1098.00 771.00 1098.00
  L 781.25 1098.00
  Q 781.75 1098.00 781.75 1098.50
  Z
  M 940.15 1089.20
  Q 939.01 1090.62 939.03 1088.80
  L 939.30 1054.00
  A 0.79 0.79 0.0 0 0 938.50 1053.21
  L 920.56 1053.35
  Q 919.97 1053.35 919.97 1053.94
  L 919.95 1150.60
  Q 919.95 1151.00 920.35 1151.00
  L 938.49 1151.00
  Q 939.08 1151.00 939.07 1150.41
  Q 938.84 1134.34 939.10 1118.30
  Q 939.26 1108.70 940.88 1104.96
  C 945.69 1093.87 964.28 1094.44 965.06 1108.26
  Q 965.66 1118.91 964.83 1150.35
  Q 964.81 1151.00 965.47 1151.00
  L 983.98 1151.00
  Q 984.48 1151.00 984.48 1150.51
  Q 984.56 1131.10 984.47 1111.71
  C 984.40 1097.17 979.94 1083.50 963.58 1080.89
  Q 948.67 1078.52 940.15 1089.20
  Z
  M 466.25 1143.25
  A 0.34 0.34 0.0 0 1 466.85 1143.04
  C 473.28 1151.05 482.30 1154.28 492.61 1152.96
  C 532.66 1147.85 528.54 1076.59 484.57 1081.08
  Q 474.27 1082.13 467.25 1090.90
  Q 466.75 1091.53 466.75 1090.73
  L 466.75 1054.25
  A 0.50 0.50 0.0 0 0 466.25 1053.75
  L 448.25 1053.75
  A 0.75 0.75 0.0 0 0 447.50 1054.50
  L 447.50 1150.75
  Q 447.50 1151.25 448.00 1151.25
  L 465.75 1151.25
  Q 466.25 1151.25 466.25 1150.75
  L 466.25 1143.25
  Z
  M 1460.25 1118.25
  L 1460.25 1131.51
  A 1.35 1.35 0.0 0 1 1459.27 1132.81
  C 1442.87 1137.54 1423.20 1134.33 1418.00 1115.52
  C 1409.15 1083.52 1440.93 1064.84 1465.46 1084.53
  A 0.52 0.52 0.0 0 0 1466.20 1084.45
  L 1476.24 1071.48
  A 1.29 1.29 0.0 0 0 1476.07 1069.72
  C 1461.58 1057.14 1440.63 1054.64 1423.08 1061.67
  C 1402.19 1070.05 1392.93 1092.14 1396.25 1114.00
  C 1402.36 1154.20 1446.61 1161.49 1477.14 1145.18
  C 1480.35 1143.46 1479.01 1141.13 1479.01 1138.37
  Q 1479.00 1123.44 1478.96 1108.49
  Q 1478.94 1100.31 1470.74 1100.26
  Q 1457.01 1100.18 1443.23 1100.28
  Q 1442.75 1100.29 1442.75 1100.77
  L 1442.75 1117.25
  A 0.50 0.50 0.0 0 0 1443.25 1117.75
  L 1459.75 1117.75
  Q 1460.25 1117.75 1460.25 1118.25
  Z
  M 1158.67 1131.75
  A 0.31 0.31 0.0 0 1 1158.97 1131.96
  L 1165.09 1150.79
  A 0.31 0.31 0.0 0 0 1165.39 1151.00
  L 1186.79 1151.00
  A 0.31 0.31 0.0 0 0 1187.08 1150.58
  L 1153.38 1060.20
  A 0.31 0.31 0.0 0 0 1153.08 1060.00
  L 1131.27 1060.00
  A 0.31 0.31 0.0 0 0 1130.97 1060.20
  L 1097.24 1150.58
  A 0.31 0.31 0.0 0 0 1097.53 1151.00
  L 1118.85 1151.00
  A 0.31 0.31 0.0 0 0 1119.15 1150.78
  L 1125.14 1131.97
  A 0.31 0.31 0.0 0 1 1125.44 1131.75
  L 1158.67 1131.75
  Z
  M 1252.63 1100.47
  Q 1263.65 1092.23 1260.76 1078.18
  C 1258.38 1066.56 1246.43 1060.54 1235.23 1060.35
  Q 1215.92 1060.02 1196.52 1059.98
  Q 1196.00 1059.98 1196.00 1060.50
  L 1196.00 1150.48
  Q 1196.00 1150.94 1196.46 1150.95
  Q 1220.34 1151.14 1236.32 1150.90
  C 1255.92 1150.61 1271.98 1139.40 1267.80 1117.67
  C 1266.12 1108.93 1260.38 1104.60 1252.69 1101.08
  Q 1252.15 1100.83 1252.63 1100.47
  Z
  M 1338.40 1101.09
  A 0.31 0.31 0.0 0 1 1338.33 1100.53
  C 1344.44 1096.64 1347.38 1090.92 1347.47 1083.60
  C 1347.66 1067.81 1333.79 1060.19 1319.50 1060.24
  Q 1300.96 1060.30 1282.63 1059.91
  A 0.62 0.61 0.5 0 0 1282.00 1060.52
  L 1282.00 1150.25
  Q 1282.00 1150.90 1282.65 1150.91
  Q 1302.48 1151.20 1322.32 1150.94
  C 1340.25 1150.70 1357.34 1140.70 1354.41 1120.27
  Q 1352.32 1105.73 1338.40 1101.09
  Z
  M 61.85 1132.25
  A 0.31 0.31 0.0 0 1 62.15 1132.46
  L 68.19 1151.04
  A 0.31 0.31 0.0 0 0 68.49 1151.25
  L 89.94 1151.25
  A 0.31 0.31 0.0 0 0 90.23 1150.83
  L 56.50 1060.45
  A 0.31 0.31 0.0 0 0 56.20 1060.25
  L 34.45 1060.25
  A 0.31 0.31 0.0 0 0 34.15 1060.45
  L 0.43 1150.83
  A 0.31 0.31 0.0 0 0 0.72 1151.25
  L 22.01 1151.25
  A 0.31 0.31 0.0 0 0 22.31 1151.03
  L 28.24 1132.47
  A 0.31 0.31 0.0 0 1 28.54 1132.25
  L 61.85 1132.25
  Z
  M 867.22 1097.24
  Q 867.17 1112.88 867.69 1128.49
  C 868.48 1152.32 891.40 1156.37 909.39 1147.81
  Q 909.89 1147.58 909.77 1147.04
  L 906.89 1133.68
  Q 906.76 1133.07 906.18 1133.31
  C 898.96 1136.27 886.98 1137.67 886.84 1125.97
  Q 886.67 1111.62 886.77 1097.24
  Q 886.78 1096.71 887.30 1096.72
  L 906.07 1096.82
  Q 906.72 1096.82 906.72 1096.18
  L 906.68 1081.84
  Q 906.68 1081.25 906.09 1081.25
  L 887.28 1081.25
  Q 886.75 1081.25 886.75 1080.72
  L 886.75 1064.50
  A 0.50 0.50 0.0 0 0 886.25 1064.00
  L 869.57 1064.00
  A 0.76 0.76 0.0 0 0 868.81 1064.83
  C 869.10 1067.84 870.22 1079.88 866.00 1080.78
  Q 862.60 1081.50 856.82 1081.20
  A 0.54 0.54 0.0 0 0 856.25 1081.74
  L 856.25 1096.25
  Q 856.25 1096.75 856.75 1096.75
  L 866.73 1096.75
  Q 867.22 1096.75 867.22 1097.24
  Z
  M 691.17 1102.88
  C 685.58 1119.42 691.79 1140.76 709.06 1148.19
  C 733.69 1158.78 762.23 1145.52 763.27 1116.80
  C 764.82 1074.15 703.96 1065.04 691.17 1102.88
  Z
  M 1015.61 1121.05
  A 0.45 0.45 0.0 0 1 1016.05 1120.50
  L 1061.48 1120.50
  Q 1061.93 1120.50 1061.95 1120.05
  C 1062.83 1100.25 1057.74 1081.90 1035.10 1079.46
  C 1014.19 1077.20 998.69 1090.44 996.48 1110.82
  C 994.07 1132.96 1006.46 1149.09 1028.48 1151.39
  C 1039.60 1152.56 1051.69 1150.75 1061.04 1144.39
  Q 1061.54 1144.05 1061.29 1143.50
  L 1055.63 1130.70
  Q 1055.50 1130.43 1055.24 1130.57
  C 1041.96 1137.95 1020.03 1140.71 1015.61 1121.05
  Z
  M 1543.00 1120.99
  C 1546.72 1161.61 1608.99 1163.37 1616.01 1123.56
  C 1625.80 1068.05 1537.75 1063.74 1543.00 1120.99
  Z
  M 1726.82 1142.31
  C 1737.42 1156.02 1758.80 1155.35 1770.13 1143.25
  C 1786.57 1125.69 1782.33 1088.21 1756.95 1081.06
  C 1744.89 1077.67 1735.01 1081.32 1726.34 1090.01
  Q 1725.80 1090.56 1725.82 1089.79
  L 1726.07 1082.51
  A 0.80 0.79 0.7 0 0 1725.26 1081.69
  L 1707.78 1081.94
  Q 1707.25 1081.95 1707.25 1082.47
  L 1707.25 1177.00
  Q 1707.25 1177.75 1708.00 1177.75
  L 1726.14 1177.75
  Q 1726.78 1177.75 1726.77 1177.11
  L 1726.70 1142.35
  Q 1726.70 1142.16 1726.82 1142.31
  Z
  M 146.50 1090.76
  A 0.35 0.35 0.0 0 1 145.87 1090.54
  L 146.05 1083.41
  Q 146.07 1082.75 145.41 1082.75
  L 129.00 1082.75
  Q 128.50 1082.75 128.50 1083.25
  L 128.50 1150.75
  Q 128.50 1151.25 129.00 1151.25
  L 146.97 1151.25
  Q 147.45 1151.25 147.46 1150.78
  C 147.68 1140.94 147.73 1131.67 147.55 1121.32
  C 147.37 1111.12 148.31 1095.02 163.66 1097.82
  C 171.44 1099.23 172.50 1105.83 172.63 1113.13
  Q 172.96 1131.96 172.64 1150.84
  Q 172.63 1151.25 173.04 1151.25
  L 191.47 1151.25
  A 0.55 0.55 0.0 0 0 192.02 1150.70
  Q 191.95 1134.40 192.03 1118.05
  C 192.08 1107.77 192.82 1098.71 204.52 1097.73
  C 213.90 1096.95 217.02 1104.04 217.01 1112.25
  Q 216.97 1131.48 217.01 1150.75
  Q 217.01 1151.25 217.51 1151.25
  L 235.74 1151.25
  Q 236.23 1151.25 236.23 1150.76
  Q 236.31 1142.36 236.19 1133.98
  C 236.07 1125.84 236.98 1111.66 235.38 1101.35
  C 231.55 1076.54 198.08 1074.18 186.78 1094.02
  Q 186.43 1094.63 186.15 1093.98
  C 178.83 1076.86 156.94 1077.07 146.50 1090.76
  Z
  M 267.76 1122.24
  L 312.79 1122.19
  Q 313.36 1122.19 313.40 1121.62
  C 314.54 1103.04 309.43 1083.99 287.90 1081.27
  C 267.72 1078.73 251.25 1089.92 248.33 1110.53
  C 245.32 1131.70 255.02 1148.74 276.71 1152.43
  C 288.92 1154.50 301.66 1153.06 312.25 1146.24
  A 1.09 1.09 0.0 0 0 312.66 1144.89
  L 307.22 1132.54
  A 0.52 0.52 0.0 0 0 306.49 1132.29
  C 293.34 1139.40 271.42 1142.31 267.27 1122.85
  Q 267.14 1122.24 267.76 1122.24
  Z
  M 343.05 1090.98
  L 342.98 1083.24
  Q 342.97 1082.75 342.48 1082.75
  L 326.00 1082.75
  Q 325.50 1082.75 325.50 1083.25
  L 325.50 1150.75
  Q 325.50 1151.25 326.00 1151.25
  L 344.24 1151.25
  Q 344.75 1151.25 344.75 1150.74
  Q 344.74 1132.59 344.78 1114.45
  C 344.80 1104.47 349.78 1095.62 361.26 1098.04
  C 368.77 1099.62 369.83 1107.23 369.81 1113.50
  Q 369.74 1132.11 369.75 1150.73
  Q 369.75 1151.25 370.26 1151.25
  L 388.23 1151.25
  Q 388.80 1151.25 388.80 1150.68
  Q 388.69 1127.35 389.13 1111.79
  Q 389.45 1100.65 398.81 1098.11
  C 409.96 1095.08 413.72 1103.08 413.88 1112.84
  Q 414.20 1131.83 413.90 1150.84
  Q 413.89 1151.25 414.30 1151.25
  L 432.75 1151.25
  Q 433.32 1151.25 433.31 1150.69
  Q 433.04 1129.27 432.96 1107.85
  C 432.90 1093.38 424.88 1081.45 409.28 1081.00
  Q 392.16 1080.51 383.68 1093.76
  Q 383.44 1094.14 383.23 1093.74
  Q 373.60 1075.57 353.48 1082.77
  Q 347.45 1084.93 343.58 1091.12
  Q 343.06 1091.95 343.05 1090.98
  Z
  M 548.96 1122.26
  L 594.14 1121.98
  Q 594.67 1121.97 594.72 1121.45
  C 596.66 1102.80 589.86 1083.24 568.58 1081.15
  C 547.54 1079.08 531.89 1091.31 529.44 1111.77
  C 525.11 1147.90 558.82 1160.67 587.44 1149.69
  Q 590.58 1148.48 593.96 1145.88
  Q 594.38 1145.56 594.17 1145.07
  L 588.67 1132.56
  Q 588.42 1131.99 587.87 1132.29
  C 574.53 1139.58 552.83 1142.18 548.63 1122.67
  Q 548.55 1122.26 548.96 1122.26
  Z
  M 1510.50 1092.74
  L 1510.50 1083.00
  A 0.75 0.75 0.0 0 0 1509.75 1082.25
  L 1493.25 1082.25
  Q 1492.76 1082.25 1492.76 1082.75
  L 1492.74 1150.37
  Q 1492.74 1151.00 1493.37 1151.00
  L 1511.28 1151.00
  Q 1511.98 1151.00 1511.98 1150.30
  Q 1512.02 1133.13 1512.05 1116.02
  C 1512.07 1101.82 1523.94 1097.85 1536.09 1099.89
  Q 1536.78 1100.00 1536.78 1099.31
  L 1536.74 1082.96
  A 0.75 0.74 11.2 0 0 1536.27 1082.27
  Q 1534.61 1081.60 1533.21 1081.50
  Q 1518.37 1080.41 1510.92 1092.86
  Q 1510.50 1093.55 1510.50 1092.74
  Z
  M 624.37 1093.88
  L 624.26 1083.25
  Q 624.25 1082.75 623.75 1082.75
  L 607.25 1082.75
  A 0.50 0.50 0.0 0 0 606.75 1083.25
  L 606.75 1150.75
  Q 606.75 1151.25 607.25 1151.25
  L 625.50 1151.25
  Q 626.02 1151.25 626.02 1150.72
  Q 625.95 1136.98 626.04 1123.28
  Q 626.11 1112.71 627.64 1109.08
  C 631.66 1099.60 640.65 1099.05 650.50 1100.19
  Q 651.00 1100.25 651.00 1099.75
  L 651.00 1083.22
  A 0.81 0.80 -84.3 0 0 650.36 1082.43
  Q 632.92 1078.85 624.67 1093.95
  A 0.16 0.16 0.0 0 1 624.37 1093.88
  Z
  M 1675.00 1143.01
  L 1675.00 1150.50
  Q 1675.00 1151.00 1675.50 1151.00
  L 1691.88 1151.00
  A 0.63 0.62 -90.0 0 0 1692.50 1150.37
  L 1692.50 1083.25
  Q 1692.50 1082.50 1691.75 1082.50
  L 1674.02 1082.50
  Q 1673.52 1082.50 1673.52 1083.00
  Q 1673.48 1098.13 1673.43 1113.25
  C 1673.41 1123.27 1673.12 1134.62 1661.89 1136.25
  C 1653.45 1137.48 1647.48 1132.37 1647.49 1123.72
  Q 1647.51 1103.43 1647.50 1083.02
  A 0.52 0.52 0.0 0 0 1646.98 1082.50
  L 1628.76 1082.50
  Q 1628.27 1082.50 1628.27 1082.99
  Q 1628.20 1103.21 1628.28 1123.41
  C 1628.34 1136.95 1633.31 1149.39 1647.86 1152.54
  C 1658.97 1154.95 1667.48 1151.43 1674.59 1142.86
  Q 1675.00 1142.37 1675.00 1143.01
  Z"
/>
<path fill="#000000" d="
  M 1151.79 0.00
  L 1495.06 0.00
  Q 1501.79 0.36 1508.50 0.73
  C 1596.07 5.59 1677.43 43.96 1710.23 130.28
  C 1725.28 169.90 1728.20 215.64 1722.22 257.75
  C 1710.10 343.02 1650.32 405.51 1566.92 423.85
  Q 1566.38 423.97 1566.73 424.41
  L 1773.59 682.66
  A 0.21 0.21 0.0 0 1 1773.42 683.00
  L 1589.69 683.00
  Q 1589.17 683.00 1588.84 682.59
  L 1383.24 425.82
  A 3.53 3.52 70.6 0 0 1380.49 424.50
  L 1311.00 424.50
  Q 1310.50 424.50 1310.50 425.00
  L 1310.50 682.50
  Q 1310.50 683.00 1310.00 683.00
  L 1152.29 683.00
  Q 1151.74 683.00 1151.74 682.45
  Q 1151.77 351.64 1151.74 20.91
  C 1151.74 16.06 1151.18 7.02 1151.79 0.00
  Z
  M 1565.06 256.06
  Q 1574.79 227.54 1567.75 195.98
  C 1557.00 147.76 1513.73 130.27 1469.00 130.26
  Q 1389.18 130.24 1309.73 130.25
  A 0.73 0.73 0.0 0 0 1309.00 130.98
  L 1309.00 312.99
  A 0.51 0.50 90.0 0 0 1309.50 313.50
  Q 1388.15 313.57 1466.81 313.29
  C 1507.89 313.15 1550.64 298.36 1565.06 256.06
  Z"
/>
<path fill="#ffffff" d="
  M 391.85 210.41
  C 379.83 255.30 333.42 266.17 293.44 266.22
  Q 226.72 266.30 159.99 266.23
  Q 159.50 266.23 159.50 265.74
  L 159.50 112.02
  Q 159.50 111.54 159.98 111.54
  Q 269.47 111.41 306.49 111.52
  C 344.95 111.64 384.98 127.39 393.24 169.49
  Q 397.29 190.13 391.85 210.41
  Z"
/>
<path fill="#ffffff" d="
  M 1565.06 256.06
  C 1550.64 298.36 1507.89 313.15 1466.81 313.29
  Q 1388.15 313.57 1309.50 313.50
  A 0.51 0.50 90.0 0 1 1309.00 312.99
  L 1309.00 130.98
  A 0.73 0.73 0.0 0 1 1309.73 130.25
  Q 1389.18 130.24 1469.00 130.26
  C 1513.73 130.27 1557.00 147.76 1567.75 195.98
  Q 1574.79 227.54 1565.06 256.06
  Z"
/>
<path fill="#000000" d="
  M 835.45 316.92
  A 0.26 0.26 0.0 0 0 835.25 317.34
  L 949.66 466.35
  Q 950.00 466.80 950.36 466.36
  L 995.57 410.66
  Q 995.92 410.23 996.26 410.66
  L 1056.85 486.16
  A 0.93 0.93 0.0 0 1 1056.85 487.34
  L 1011.82 542.74
  Q 1011.46 543.19 1011.82 543.63
  L 1124.53 681.94
  Q 1124.98 682.50 1124.27 682.50
  L 985.29 682.50
  A 1.07 1.05 69.6 0 1 984.48 682.12
  L 942.28 632.00
  Q 941.95 631.61 941.55 631.91
  C 924.75 644.56 908.11 655.60 888.48 663.45
  C 831.27 686.34 759.82 691.78 702.60 666.70
  C 648.48 642.97 613.40 590.12 611.89 531.22
  C 610.46 475.26 643.13 429.67 689.40 401.06
  C 703.72 392.21 721.07 384.79 736.78 377.40
  A 0.55 0.54 -34.1 0 0 736.95 376.54
  L 680.85 315.90
  A 1.33 1.32 -66.5 0 1 680.50 315.00
  L 680.50 212.50
  Q 680.50 212.00 681.00 212.00
  L 994.25 212.00
  A 0.50 0.50 0.0 0 1 994.75 212.50
  L 994.75 316.96
  Q 994.75 317.41 994.30 317.41
  L 835.45 316.92
  Z
  M 733.00 530.69
  C 738.59 578.31 798.29 595.78 836.00 577.26
  Q 857.34 566.78 877.39 553.84
  Q 877.81 553.57 877.50 553.17
  L 799.85 454.55
  Q 799.45 454.04 798.86 454.31
  C 769.32 467.80 728.51 492.41 733.00 530.69
  Z"
/>
<path fill="#ffffff" d="
  M 318.99 370.77
  C 356.34 370.90 393.09 386.38 409.28 422.22
  C 420.00 445.95 421.72 474.39 417.42 499.68
  C 409.47 546.50 375.65 573.08 330.15 577.97
  Q 323.54 578.68 310.18 578.70
  Q 235.09 578.82 159.99 578.72
  Q 159.50 578.72 159.50 578.24
  L 159.50 371.27
  Q 159.50 370.79 159.98 370.79
  Q 285.59 370.65 318.99 370.77
  Z"
/>
<path fill="#ffffff" d="
  M 836.00 577.26
  C 798.29 595.78 738.59 578.31 733.00 530.69
  C 728.51 492.41 769.32 467.80 798.86 454.31
  Q 799.45 454.04 799.85 454.55
  L 877.50 553.17
  Q 877.81 553.57 877.39 553.84
  Q 857.34 566.78 836.00 577.26
  Z"
/>
<path fill="#ff8800" d="
  M 0.00 945.00
  L 0.00 787.08
  L 1779.21 787.20
  Q 1779.75 787.20 1779.75 787.74
  L 1779.75 944.48
  A 0.52 0.52 0.0 0 1 1779.23 945.00
  L 0.00 945.00
  Z"
/>
<path fill="#000000" d="
  M 781.25 1098.00
  L 771.00 1098.00
  Q 770.50 1098.00 770.50 1097.50
  L 770.50 1082.96
  A 0.77 0.77 0.0 0 1 771.30 1082.19
  L 781.24 1082.55
  A 0.52 0.52 0.0 0 0 781.78 1082.02
  C 781.49 1067.10 787.33 1054.58 803.32 1051.82
  Q 813.08 1050.14 822.54 1054.27
  Q 823.18 1054.55 823.01 1055.23
  L 819.66 1068.75
  Q 819.53 1069.28 819.01 1069.12
  C 808.41 1065.78 800.06 1069.18 801.13 1081.69
  Q 801.17 1082.21 801.69 1082.22
  L 819.42 1082.32
  A 0.59 0.59 0.0 0 1 820.00 1082.91
  L 820.00 1097.50
  Q 820.00 1098.00 819.50 1098.00
  L 801.75 1098.00
  A 0.75 0.75 0.0 0 0 801.00 1098.75
  L 801.00 1150.02
  A 0.77 0.77 0.0 0 1 800.23 1150.79
  L 782.24 1150.73
  Q 781.75 1150.73 781.75 1150.24
  L 781.75 1098.50
  Q 781.75 1098.00 781.25 1098.00
  Z"
/>
<path fill="#000000" d="
  M 940.15 1089.20
  Q 948.67 1078.52 963.58 1080.89
  C 979.94 1083.50 984.40 1097.17 984.47 1111.71
  Q 984.56 1131.10 984.48 1150.51
  Q 984.48 1151.00 983.98 1151.00
  L 965.47 1151.00
  Q 964.81 1151.00 964.83 1150.35
  Q 965.66 1118.91 965.06 1108.26
  C 964.28 1094.44 945.69 1093.87 940.88 1104.96
  Q 939.26 1108.70 939.10 1118.30
  Q 938.84 1134.34 939.07 1150.41
  Q 939.08 1151.00 938.49 1151.00
  L 920.35 1151.00
  Q 919.95 1151.00 919.95 1150.60
  L 919.97 1053.94
  Q 919.97 1053.35 920.56 1053.35
  L 938.50 1053.21
  A 0.79 0.79 0.0 0 1 939.30 1054.00
  L 939.03 1088.80
  Q 939.01 1090.62 940.15 1089.20
  Z"
/>
<path fill="#000000" d="
  M 466.25 1143.25
  L 466.25 1150.75
  Q 466.25 1151.25 465.75 1151.25
  L 448.00 1151.25
  Q 447.50 1151.25 447.50 1150.75
  L 447.50 1054.50
  A 0.75 0.75 0.0 0 1 448.25 1053.75
  L 466.25 1053.75
  A 0.50 0.50 0.0 0 1 466.75 1054.25
  L 466.75 1090.73
  Q 466.75 1091.53 467.25 1090.90
  Q 474.27 1082.13 484.57 1081.08
  C 528.54 1076.59 532.66 1147.85 492.61 1152.96
  C 482.30 1154.28 473.28 1151.05 466.85 1143.04
  A 0.34 0.34 0.0 0 0 466.25 1143.25
  Z
  M 483.1759 1136.6200
  A 19.52 17.38 90.1 0 0 500.5900 1117.1303
  A 19.52 17.38 90.1 0 0 483.2441 1097.5800
  A 19.52 17.38 90.1 0 0 465.8300 1117.0697
  A 19.52 17.38 90.1 0 0 483.1759 1136.6200
  Z"
/>
<path fill="#000000" d="
  M 1459.75 1117.75
  L 1443.25 1117.75
  A 0.50 0.50 0.0 0 1 1442.75 1117.25
  L 1442.75 1100.77
  Q 1442.75 1100.29 1443.23 1100.28
  Q 1457.01 1100.18 1470.74 1100.26
  Q 1478.94 1100.31 1478.96 1108.49
  Q 1479.00 1123.44 1479.01 1138.37
  C 1479.01 1141.13 1480.35 1143.46 1477.14 1145.18
  C 1446.61 1161.49 1402.36 1154.20 1396.25 1114.00
  C 1392.93 1092.14 1402.19 1070.05 1423.08 1061.67
  C 1440.63 1054.64 1461.58 1057.14 1476.07 1069.72
  A 1.29 1.29 0.0 0 1 1476.24 1071.48
  L 1466.20 1084.45
  A 0.52 0.52 0.0 0 1 1465.46 1084.53
  C 1440.93 1064.84 1409.15 1083.52 1418.00 1115.52
  C 1423.20 1134.33 1442.87 1137.54 1459.27 1132.81
  A 1.35 1.35 0.0 0 0 1460.25 1131.51
  L 1460.25 1118.25
  Q 1460.25 1117.75 1459.75 1117.75
  Z"
/>
<path fill="#000000" d="
  M 1158.67 1131.75
  L 1125.44 1131.75
  A 0.31 0.31 0.0 0 0 1125.14 1131.97
  L 1119.15 1150.78
  A 0.31 0.31 0.0 0 1 1118.85 1151.00
  L 1097.53 1151.00
  A 0.31 0.31 0.0 0 1 1097.24 1150.58
  L 1130.97 1060.20
  A 0.31 0.31 0.0 0 1 1131.27 1060.00
  L 1153.08 1060.00
  A 0.31 0.31 0.0 0 1 1153.38 1060.20
  L 1187.08 1150.58
  A 0.31 0.31 0.0 0 1 1186.79 1151.00
  L 1165.39 1151.00
  A 0.31 0.31 0.0 0 1 1165.09 1150.79
  L 1158.97 1131.96
  A 0.31 0.31 0.0 0 0 1158.67 1131.75
  Z
  M 1130.72 1115.08
  A 0.35 0.35 0.0 0 0 1131.05 1115.54
  L 1153.13 1115.46
  A 0.35 0.35 0.0 0 0 1153.46 1115.00
  L 1142.30 1080.92
  A 0.35 0.35 0.0 0 0 1141.64 1080.93
  L 1130.72 1115.08
  Z"
/>
<path fill="#000000" d="
  M 1252.69 1101.08
  C 1260.38 1104.60 1266.12 1108.93 1267.80 1117.67
  C 1271.98 1139.40 1255.92 1150.61 1236.32 1150.90
  Q 1220.34 1151.14 1196.46 1150.95
  Q 1196.00 1150.94 1196.00 1150.48
  L 1196.00 1060.50
  Q 1196.00 1059.98 1196.52 1059.98
  Q 1215.92 1060.02 1235.23 1060.35
  C 1246.43 1060.54 1258.38 1066.56 1260.76 1078.18
  Q 1263.65 1092.23 1252.63 1100.47
  Q 1252.15 1100.83 1252.69 1101.08
  Z
  M 1215.94 1076.82
  L 1216.00 1094.50
  A 0.82 0.82 0.0 0 0 1216.82 1095.31
  L 1230.64 1095.26
  A 11.38 9.37 -0.2 0 0 1241.99 1085.85
  L 1241.99 1085.27
  A 11.38 9.37 -0.2 0 0 1230.58 1075.94
  L 1216.76 1075.99
  A 0.82 0.82 0.0 0 0 1215.94 1076.82
  Z
  M 1216.09 1111.50
  L 1216.13 1134.12
  A 0.61 0.61 0.0 0 0 1216.74 1134.73
  L 1234.20 1134.70
  A 13.83 10.85 -0.1 0 0 1248.01 1123.82
  L 1248.01 1121.68
  A 13.83 10.85 -0.1 0 0 1234.16 1110.86
  L 1216.70 1110.89
  A 0.61 0.61 0.0 0 0 1216.09 1111.50
  Z"
/>
<path fill="#000000" d="
  M 1338.40 1101.09
  Q 1352.32 1105.73 1354.41 1120.27
  C 1357.34 1140.70 1340.25 1150.70 1322.32 1150.94
  Q 1302.48 1151.20 1282.65 1150.91
  Q 1282.00 1150.90 1282.00 1150.25
  L 1282.00 1060.52
  A 0.62 0.61 0.5 0 1 1282.63 1059.91
  Q 1300.96 1060.30 1319.50 1060.24
  C 1333.79 1060.19 1347.66 1067.81 1347.47 1083.60
  C 1347.38 1090.92 1344.44 1096.64 1338.33 1100.53
  A 0.31 0.31 0.0 0 0 1338.40 1101.09
  Z
  M 1301.90 1076.89
  L 1301.96 1094.41
  A 0.92 0.92 0.0 0 0 1302.88 1095.32
  L 1316.70 1095.27
  A 11.34 8.82 -0.2 0 0 1328.01 1086.41
  L 1328.01 1084.69
  A 11.34 8.82 -0.2 0 0 1316.64 1075.91
  L 1302.82 1075.96
  A 0.92 0.92 0.0 0 0 1301.90 1076.89
  Z
  M 1302.04 1111.42
  L 1301.96 1134.06
  A 0.61 0.61 0.0 0 0 1302.57 1134.68
  L 1320.32 1134.74
  A 13.90 10.97 0.2 0 0 1334.26 1123.82
  L 1334.26 1121.90
  A 13.90 10.97 0.2 0 0 1320.40 1110.88
  L 1302.65 1110.82
  A 0.61 0.61 0.0 0 0 1302.04 1111.42
  Z"
/>
<path fill="#000000" d="
  M 61.85 1132.25
  L 28.54 1132.25
  A 0.31 0.31 0.0 0 0 28.24 1132.47
  L 22.31 1151.03
  A 0.31 0.31 0.0 0 1 22.01 1151.25
  L 0.72 1151.25
  A 0.31 0.31 0.0 0 1 0.43 1150.83
  L 34.15 1060.45
  A 0.31 0.31 0.0 0 1 34.45 1060.25
  L 56.20 1060.25
  A 0.31 0.31 0.0 0 1 56.50 1060.45
  L 90.23 1150.83
  A 0.31 0.31 0.0 0 1 89.94 1151.25
  L 68.49 1151.25
  A 0.31 0.31 0.0 0 1 68.19 1151.04
  L 62.15 1132.46
  A 0.31 0.31 0.0 0 0 61.85 1132.25
  Z
  M 33.83 1115.37
  A 0.32 0.32 0.0 0 0 34.14 1115.79
  L 56.33 1115.71
  A 0.32 0.32 0.0 0 0 56.63 1115.29
  L 45.42 1081.22
  A 0.32 0.32 0.0 0 0 44.81 1081.23
  L 33.83 1115.37
  Z"
/>
<path fill="#000000" d="
  M 866.73 1096.75
  L 856.75 1096.75
  Q 856.25 1096.75 856.25 1096.25
  L 856.25 1081.74
  A 0.54 0.54 0.0 0 1 856.82 1081.20
  Q 862.60 1081.50 866.00 1080.78
  C 870.22 1079.88 869.10 1067.84 868.81 1064.83
  A 0.76 0.76 0.0 0 1 869.57 1064.00
  L 886.25 1064.00
  A 0.50 0.50 0.0 0 1 886.75 1064.50
  L 886.75 1080.72
  Q 886.75 1081.25 887.28 1081.25
  L 906.09 1081.25
  Q 906.68 1081.25 906.68 1081.84
  L 906.72 1096.18
  Q 906.72 1096.82 906.07 1096.82
  L 887.30 1096.72
  Q 886.78 1096.71 886.77 1097.24
  Q 886.67 1111.62 886.84 1125.97
  C 886.98 1137.67 898.96 1136.27 906.18 1133.31
  Q 906.76 1133.07 906.89 1133.68
  L 909.77 1147.04
  Q 909.89 1147.58 909.39 1147.81
  C 891.40 1156.37 868.48 1152.32 867.69 1128.49
  Q 867.17 1112.88 867.22 1097.24
  Q 867.22 1096.75 866.73 1096.75
  Z"
/>
<path fill="#ffffff" d="
  M 1215.94 1076.82
  A 0.82 0.82 0.0 0 1 1216.76 1075.99
  L 1230.58 1075.94
  A 11.38 9.37 -0.2 0 1 1241.99 1085.27
  L 1241.99 1085.85
  A 11.38 9.37 -0.2 0 1 1230.64 1095.26
  L 1216.82 1095.31
  A 0.82 0.82 0.0 0 1 1216.00 1094.50
  L 1215.94 1076.82
  Z"
/>
<path fill="#ffffff" d="
  M 1301.90 1076.89
  A 0.92 0.92 0.0 0 1 1302.82 1075.96
  L 1316.64 1075.91
  A 11.34 8.82 -0.2 0 1 1328.01 1084.69
  L 1328.01 1086.41
  A 11.34 8.82 -0.2 0 1 1316.70 1095.27
  L 1302.88 1095.32
  A 0.92 0.92 0.0 0 1 1301.96 1094.41
  L 1301.90 1076.89
  Z"
/>
<path fill="#000000" d="
  M 709.06 1148.19
  C 691.79 1140.76 685.58 1119.42 691.17 1102.88
  C 703.96 1065.04 764.82 1074.15 763.27 1116.80
  C 762.23 1145.52 733.69 1158.78 709.06 1148.19
  Z
  M 726.2540 1134.9700
  A 19.49 17.48 89.9 0 0 743.7000 1115.4495
  A 19.49 17.48 89.9 0 0 726.1860 1095.9900
  A 19.49 17.48 89.9 0 0 708.7400 1115.5105
  A 19.49 17.48 89.9 0 0 726.2540 1134.9700
  Z"
/>
<path fill="#000000" d="
  M 1015.61 1121.05
  C 1020.03 1140.71 1041.96 1137.95 1055.24 1130.57
  Q 1055.50 1130.43 1055.63 1130.70
  L 1061.29 1143.50
  Q 1061.54 1144.05 1061.04 1144.39
  C 1051.69 1150.75 1039.60 1152.56 1028.48 1151.39
  C 1006.46 1149.09 994.07 1132.96 996.48 1110.82
  C 998.69 1090.44 1014.19 1077.20 1035.10 1079.46
  C 1057.74 1081.90 1062.83 1100.25 1061.95 1120.05
  Q 1061.93 1120.50 1061.48 1120.50
  L 1016.05 1120.50
  A 0.45 0.45 0.0 0 0 1015.61 1121.05
  Z
  M 1016.08 1108.23
  L 1044.08 1107.89
  A 0.14 0.14 0.0 0 0 1044.22 1107.75
  L 1044.22 1107.71
  A 13.47 13.40 -0.7 0 0 1030.59 1094.47
  L 1029.25 1094.49
  A 13.47 13.40 -0.7 0 0 1015.94 1108.05
  L 1015.94 1108.09
  A 0.14 0.14 0.0 0 0 1016.08 1108.23
  Z"
/>
<path fill="#000000" d="
  M 1616.01 1123.56
  C 1608.99 1163.37 1546.72 1161.61 1543.00 1120.99
  C 1537.75 1063.74 1625.80 1068.05 1616.01 1123.56
  Z
  M 1579.6700 1135.6600
  A 19.50 17.47 90.0 0 0 1597.1400 1116.1600
  A 19.50 17.47 90.0 0 0 1579.6700 1096.6600
  A 19.50 17.47 90.0 0 0 1562.2000 1116.1600
  A 19.50 17.47 90.0 0 0 1579.6700 1135.6600
  Z"
/>
<path fill="#000000" d="
  M 1726.82 1142.31
  Q 1726.70 1142.16 1726.70 1142.35
  L 1726.77 1177.11
  Q 1726.78 1177.75 1726.14 1177.75
  L 1708.00 1177.75
  Q 1707.25 1177.75 1707.25 1177.00
  L 1707.25 1082.47
  Q 1707.25 1081.95 1707.78 1081.94
  L 1725.26 1081.69
  A 0.80 0.79 0.7 0 1 1726.07 1082.51
  L 1725.82 1089.79
  Q 1725.80 1090.56 1726.34 1090.01
  C 1735.01 1081.32 1744.89 1077.67 1756.95 1081.06
  C 1782.33 1088.21 1786.57 1125.69 1770.13 1143.25
  C 1758.80 1155.35 1737.42 1156.02 1726.82 1142.31
  Z
  M 1742.8518 1135.6899
  A 19.53 17.37 90.2 0 0 1760.2899 1116.2206
  A 19.53 17.37 90.2 0 0 1742.9882 1096.6301
  A 19.53 17.37 90.2 0 0 1725.5501 1116.0994
  A 19.53 17.37 90.2 0 0 1742.8518 1135.6899
  Z"
/>
<path fill="#ffffff" d="
  M 1130.72 1115.08
  L 1141.64 1080.93
  A 0.35 0.35 0.0 0 1 1142.30 1080.92
  L 1153.46 1115.00
  A 0.35 0.35 0.0 0 1 1153.13 1115.46
  L 1131.05 1115.54
  A 0.35 0.35 0.0 0 1 1130.72 1115.08
  Z"
/>
<path fill="#ffffff" d="
  M 33.83 1115.37
  L 44.81 1081.23
  A 0.32 0.32 0.0 0 1 45.42 1081.22
  L 56.63 1115.29
  A 0.32 0.32 0.0 0 1 56.33 1115.71
  L 34.14 1115.79
  A 0.32 0.32 0.0 0 1 33.83 1115.37
  Z"
/>
<path fill="#000000" d="
  M 146.50 1090.76
  C 156.94 1077.07 178.83 1076.86 186.15 1093.98
  Q 186.43 1094.63 186.78 1094.02
  C 198.08 1074.18 231.55 1076.54 235.38 1101.35
  C 236.98 1111.66 236.07 1125.84 236.19 1133.98
  Q 236.31 1142.36 236.23 1150.76
  Q 236.23 1151.25 235.74 1151.25
  L 217.51 1151.25
  Q 217.01 1151.25 217.01 1150.75
  Q 216.97 1131.48 217.01 1112.25
  C 217.02 1104.04 213.90 1096.95 204.52 1097.73
  C 192.82 1098.71 192.08 1107.77 192.03 1118.05
  Q 191.95 1134.40 192.02 1150.70
  A 0.55 0.55 0.0 0 1 191.47 1151.25
  L 173.04 1151.25
  Q 172.63 1151.25 172.64 1150.84
  Q 172.96 1131.96 172.63 1113.13
  C 172.50 1105.83 171.44 1099.23 163.66 1097.82
  C 148.31 1095.02 147.37 1111.12 147.55 1121.32
  C 147.73 1131.67 147.68 1140.94 147.46 1150.78
  Q 147.45 1151.25 146.97 1151.25
  L 129.00 1151.25
  Q 128.50 1151.25 128.50 1150.75
  L 128.50 1083.25
  Q 128.50 1082.75 129.00 1082.75
  L 145.41 1082.75
  Q 146.07 1082.75 146.05 1083.41
  L 145.87 1090.54
  A 0.35 0.35 0.0 0 0 146.50 1090.76
  Z"
/>
<path fill="#000000" d="
  M 267.27 1122.85
  C 271.42 1142.31 293.34 1139.40 306.49 1132.29
  A 0.52 0.52 0.0 0 1 307.22 1132.54
  L 312.66 1144.89
  A 1.09 1.09 0.0 0 1 312.25 1146.24
  C 301.66 1153.06 288.92 1154.50 276.71 1152.43
  C 255.02 1148.74 245.32 1131.70 248.33 1110.53
  C 251.25 1089.92 267.72 1078.73 287.90 1081.27
  C 309.43 1083.99 314.54 1103.04 313.40 1121.62
  Q 313.36 1122.19 312.79 1122.19
  L 267.76 1122.24
  Q 267.14 1122.24 267.27 1122.85
  Z
  M 267.60 1109.58
  L 295.68 1109.44
  A 0.02 0.02 0.0 0 0 295.70 1109.42
  L 295.69 1109.36
  A 13.78 13.44 -0.3 0 0 281.84 1095.99
  L 281.28 1095.99
  A 13.78 13.44 -0.3 0 0 267.58 1109.50
  L 267.58 1109.56
  A 0.02 0.02 0.0 0 0 267.60 1109.58
  Z"
/>
<path fill="#000000" d="
  M 343.58 1091.12
  Q 347.45 1084.93 353.48 1082.77
  Q 373.60 1075.57 383.23 1093.74
  Q 383.44 1094.14 383.68 1093.76
  Q 392.16 1080.51 409.28 1081.00
  C 424.88 1081.45 432.90 1093.38 432.96 1107.85
  Q 433.04 1129.27 433.31 1150.69
  Q 433.32 1151.25 432.75 1151.25
  L 414.30 1151.25
  Q 413.89 1151.25 413.90 1150.84
  Q 414.20 1131.83 413.88 1112.84
  C 413.72 1103.08 409.96 1095.08 398.81 1098.11
  Q 389.45 1100.65 389.13 1111.79
  Q 388.69 1127.35 388.80 1150.68
  Q 388.80 1151.25 388.23 1151.25
  L 370.26 1151.25
  Q 369.75 1151.25 369.75 1150.73
  Q 369.74 1132.11 369.81 1113.50
  C 369.83 1107.23 368.77 1099.62 361.26 1098.04
  C 349.78 1095.62 344.80 1104.47 344.78 1114.45
  Q 344.74 1132.59 344.75 1150.74
  Q 344.75 1151.25 344.24 1151.25
  L 326.00 1151.25
  Q 325.50 1151.25 325.50 1150.75
  L 325.50 1083.25
  Q 325.50 1082.75 326.00 1082.75
  L 342.48 1082.75
  Q 342.97 1082.75 342.98 1083.24
  L 343.05 1090.98
  Q 343.06 1091.95 343.58 1091.12
  Z"
/>
<path fill="#000000" d="
  M 548.63 1122.67
  C 552.83 1142.18 574.53 1139.58 587.87 1132.29
  Q 588.42 1131.99 588.67 1132.56
  L 594.17 1145.07
  Q 594.38 1145.56 593.96 1145.88
  Q 590.58 1148.48 587.44 1149.69
  C 558.82 1160.67 525.11 1147.90 529.44 1111.77
  C 531.89 1091.31 547.54 1079.08 568.58 1081.15
  C 589.86 1083.24 596.66 1102.80 594.72 1121.45
  Q 594.67 1121.97 594.14 1121.98
  L 548.96 1122.26
  Q 548.55 1122.26 548.63 1122.67
  Z
  M 549.05 1109.53
  L 576.87 1109.49
  A 0.17 0.17 0.0 0 0 577.04 1109.32
  L 577.04 1109.22
  A 13.88 13.25 -0.1 0 0 563.14 1095.99
  L 562.74 1095.99
  A 13.88 13.25 -0.1 0 0 548.88 1109.26
  L 548.88 1109.36
  A 0.17 0.17 0.0 0 0 549.05 1109.53
  Z"
/>
<path fill="#000000" d="
  M 1510.92 1092.86
  Q 1518.37 1080.41 1533.21 1081.50
  Q 1534.61 1081.60 1536.27 1082.27
  A 0.75 0.74 11.2 0 1 1536.74 1082.96
  L 1536.78 1099.31
  Q 1536.78 1100.00 1536.09 1099.89
  C 1523.94 1097.85 1512.07 1101.82 1512.05 1116.02
  Q 1512.02 1133.13 1511.98 1150.30
  Q 1511.98 1151.00 1511.28 1151.00
  L 1493.37 1151.00
  Q 1492.74 1151.00 1492.74 1150.37
  L 1492.76 1082.75
  Q 1492.76 1082.25 1493.25 1082.25
  L 1509.75 1082.25
  A 0.75 0.75 0.0 0 1 1510.50 1083.00
  L 1510.50 1092.74
  Q 1510.50 1093.55 1510.92 1092.86
  Z"
/>
<path fill="#000000" d="
  M 624.37 1093.88
  A 0.16 0.16 0.0 0 0 624.67 1093.95
  Q 632.92 1078.85 650.36 1082.43
  A 0.81 0.80 -84.3 0 1 651.00 1083.22
  L 651.00 1099.75
  Q 651.00 1100.25 650.50 1100.19
  C 640.65 1099.05 631.66 1099.60 627.64 1109.08
  Q 626.11 1112.71 626.04 1123.28
  Q 625.95 1136.98 626.02 1150.72
  Q 626.02 1151.25 625.50 1151.25
  L 607.25 1151.25
  Q 606.75 1151.25 606.75 1150.75
  L 606.75 1083.25
  A 0.50 0.50 0.0 0 1 607.25 1082.75
  L 623.75 1082.75
  Q 624.25 1082.75 624.26 1083.25
  L 624.37 1093.88
  Z"
/>
<path fill="#000000" d="
  M 1674.59 1142.86
  C 1667.48 1151.43 1658.97 1154.95 1647.86 1152.54
  C 1633.31 1149.39 1628.34 1136.95 1628.28 1123.41
  Q 1628.20 1103.21 1628.27 1082.99
  Q 1628.27 1082.50 1628.76 1082.50
  L 1646.98 1082.50
  A 0.52 0.52 0.0 0 1 1647.50 1083.02
  Q 1647.51 1103.43 1647.49 1123.72
  C 1647.48 1132.37 1653.45 1137.48 1661.89 1136.25
  C 1673.12 1134.62 1673.41 1123.27 1673.43 1113.25
  Q 1673.48 1098.13 1673.52 1083.00
  Q 1673.52 1082.50 1674.02 1082.50
  L 1691.75 1082.50
  Q 1692.50 1082.50 1692.50 1083.25
  L 1692.50 1150.37
  A 0.63 0.62 -90.0 0 1 1691.88 1151.00
  L 1675.50 1151.00
  Q 1675.00 1151.00 1675.00 1150.50
  L 1675.00 1143.01
  Q 1675.00 1142.37 1674.59 1142.86
  Z"
/>
<path fill="#ffffff" d="
  M 1016.08 1108.23
  A 0.14 0.14 0.0 0 1 1015.94 1108.09
  L 1015.94 1108.05
  A 13.47 13.40 -0.7 0 1 1029.25 1094.49
  L 1030.59 1094.47
  A 13.47 13.40 -0.7 0 1 1044.22 1107.71
  L 1044.22 1107.75
  A 0.14 0.14 0.0 0 1 1044.08 1107.89
  L 1016.08 1108.23
  Z"
/>
<path fill="#ffffff" d="
  M 267.60 1109.58
  A 0.02 0.02 0.0 0 1 267.58 1109.56
  L 267.58 1109.50
  A 13.78 13.44 -0.3 0 1 281.28 1095.99
  L 281.84 1095.99
  A 13.78 13.44 -0.3 0 1 295.69 1109.36
  L 295.70 1109.42
  A 0.02 0.02 0.0 0 1 295.68 1109.44
  L 267.60 1109.58
  Z"
/>
<path fill="#ffffff" d="
  M 549.05 1109.53
  A 0.17 0.17 0.0 0 1 548.88 1109.36
  L 548.88 1109.26
  A 13.88 13.25 -0.1 0 1 562.74 1095.99
  L 563.14 1095.99
  A 13.88 13.25 -0.1 0 1 577.04 1109.22
  L 577.04 1109.32
  A 0.17 0.17 0.0 0 1 576.87 1109.49
  L 549.05 1109.53
  Z"
/>
<ellipse fill="#ffffff" cx="0.00" cy="0.00" transform="translate(726.22,1115.48) rotate(89.9)" rx="19.49" ry="17.48"/>
<ellipse fill="#ffffff" cx="0.00" cy="0.00" transform="translate(1579.67,1116.16) rotate(90.0)" rx="19.50" ry="17.47"/>
<ellipse fill="#ffffff" cx="0.00" cy="0.00" transform="translate(1742.92,1116.16) rotate(90.2)" rx="19.53" ry="17.37"/>
<ellipse fill="#ffffff" cx="0.00" cy="0.00" transform="translate(483.21,1117.10) rotate(90.1)" rx="19.52" ry="17.38"/>
<path fill="#ffffff" d="
  M 1216.09 1111.50
  A 0.61 0.61 0.0 0 1 1216.70 1110.89
  L 1234.16 1110.86
  A 13.83 10.85 -0.1 0 1 1248.01 1121.68
  L 1248.01 1123.82
  A 13.83 10.85 -0.1 0 1 1234.20 1134.70
  L 1216.74 1134.73
  A 0.61 0.61 0.0 0 1 1216.13 1134.12
  L 1216.09 1111.50
  Z"
/>
<path fill="#ffffff" d="
  M 1302.04 1111.42
  A 0.61 0.61 0.0 0 1 1302.65 1110.82
  L 1320.40 1110.88
  A 13.90 10.97 0.2 0 1 1334.26 1121.90
  L 1334.26 1123.82
  A 13.90 10.97 0.2 0 1 1320.32 1134.74
  L 1302.57 1134.68
  A 0.61 0.61 0.0 0 1 1301.96 1134.06
  L 1302.04 1111.42
  Z"
/>
</svg>
