<?xml version="1.0" encoding="UTF-8" standalone="no"?>
<!DOCTYPE svg PUBLIC "-//W3C//DTD SVG 1.1//EN" "http://www.w3.org/Graphics/SVG/1.1/DTD/svg11.dtd">
<svg xmlns="http://www.w3.org/2000/svg" version="1.1" viewBox="0.00 0.00 1920.00 1022.00">
<g stroke-width="2.00" fill="none" stroke-linecap="butt">
<path stroke="#808080" vector-effect="non-scaling-stroke" d="
  M 369.06 0.00
  Q 391.64 0.85 413.93 4.08
  C 491.82 15.40 564.75 57.25 589.11 136.67
  Q 603.15 182.39 595.79 230.42
  C 588.41 278.54 561.26 318.73 520.23 344.44
  C 514.69 347.91 507.96 351.45 501.57 354.66
  A 0.38 0.37 41.3 0 0 501.62 355.35
  C 558.55 375.69 600.55 419.26 615.07 478.42
  Q 625.37 520.39 619.21 561.45
  C 600.49 686.23 486.02 736.90 372.25 736.98
  Q 286.02 737.04 0.00 736.99"
/>
<path stroke="#808080" vector-effect="non-scaling-stroke" d="
  M 408.54 254.29
  Q 421.77 238.23 424.89 217.50
  C 434.12 156.15 392.15 121.55 334.74 120.57
  C 280.72 119.64 226.56 120.23 172.50 120.27
  Q 172.00 120.27 172.00 120.76
  L 172.00 286.74
  Q 172.00 287.23 172.49 287.23
  Q 244.34 287.31 316.20 287.22
  C 349.16 287.18 386.08 281.57 408.54 254.29"
/>
<path stroke="#808080" vector-effect="non-scaling-stroke" d="
  M 449.12 478.82
  C 439.04 430.67 403.22 404.95 355.91 400.63
  Q 349.78 400.07 335.93 400.05
  Q 254.24 399.92 172.48 400.03
  Q 172.00 400.03 172.00 400.52
  L 172.00 623.98
  A 0.50 0.50 0.0 0 0 172.50 624.48
  Q 253.19 624.55 333.94 624.46
  C 356.74 624.44 380.06 621.65 400.48 610.65
  C 448.59 584.72 459.58 528.83 449.12 478.82"
/>
<path stroke="#808080" vector-effect="non-scaling-stroke" d="
  M 1242.26 0.00
  L 1242.26 736.50
  Q 1242.26 737.00 1242.77 737.00
  L 1413.00 737.00
  Q 1413.50 737.00 1413.50 736.50
  L 1413.50 458.50
  Q 1413.50 457.99 1414.00 457.99
  L 1489.15 458.01
  Q 1490.90 458.01 1491.99 459.38
  L 1713.88 736.59
  A 1.11 1.10 -19.3 0 0 1714.74 737.00
  L 1912.76 737.00
  A 0.33 0.33 0.0 0 0 1913.02 736.47
  L 1689.99 457.96
  Q 1689.57 457.43 1690.23 457.28
  C 1777.84 437.71 1841.42 373.88 1856.56 284.91
  C 1871.23 198.65 1849.85 102.55 1775.40 48.85
  C 1727.82 14.53 1670.27 1.91 1612.56 0.00"
/>
<path stroke="#ffc480" vector-effect="non-scaling-stroke" d="
  M 0.00 1019.50
  L 1919.24 1019.50
  A 0.51 0.51 0.0 0 0 1919.75 1018.99
  L 1919.75 849.76
  Q 1919.75 849.25 1919.24 849.25
  L 0.00 849.25"
/>
<path stroke="#808080" vector-effect="non-scaling-stroke" d="
  M 901.27 341.92
  L 1072.52 342.47
  Q 1073.00 342.47 1073.00 341.98
  L 1073.00 229.25
  Q 1073.00 228.75 1072.50 228.75
  L 734.50 228.75
  Q 734.00 228.75 734.00 229.25
  L 734.00 339.71
  A 1.82 1.81 -66.5 0 0 734.48 340.94
  L 795.19 406.56
  A 0.30 0.30 0.0 0 1 795.10 407.04
  Q 777.36 415.33 759.71 424.01
  C 737.50 434.94 718.00 449.40 701.25 467.51
  Q 651.35 521.44 661.78 593.89
  C 669.58 648.09 706.13 696.26 756.08 718.52
  C 818.39 746.29 894.50 740.84 956.71 716.52
  C 978.00 708.20 997.76 695.99 1015.56 681.66
  Q 1015.95 681.35 1016.27 681.73
  L 1062.09 736.19
  Q 1062.36 736.50 1062.77 736.50
  L 1212.99 736.50
  A 0.28 0.28 0.0 0 0 1213.21 736.05
  L 1091.40 586.55
  A 0.76 0.76 0.0 0 1 1091.40 585.59
  L 1140.16 525.60
  Q 1140.51 525.18 1140.17 524.76
  L 1074.57 443.04
  A 0.43 0.43 0.0 0 0 1073.90 443.04
  L 1025.03 503.30
  Q 1024.73 503.66 1024.45 503.29
  L 901.00 342.48
  A 0.35 0.34 71.3 0 1 901.27 341.92"
/>
<path stroke="#808080" vector-effect="non-scaling-stroke" d="
  M 1693.08 254.57
  Q 1695.70 233.11 1691.27 212.00
  C 1680.17 158.99 1632.26 140.82 1583.75 140.71
  Q 1498.03 140.49 1412.53 140.47
  A 0.53 0.53 0.0 0 0 1412.00 141.00
  L 1412.00 337.73
  Q 1412.00 338.21 1412.48 338.21
  Q 1497.15 338.35 1581.81 338.15
  C 1636.40 338.03 1685.79 314.47 1693.08 254.57"
/>
<path stroke="#808080" vector-effect="non-scaling-stroke" d="
  M 809.19 609.56
  C 832.86 631.99 873.07 636.51 901.99 622.60
  Q 924.93 611.56 946.30 597.58
  Q 946.81 597.24 946.44 596.77
  L 862.72 490.38
  Q 862.30 489.85 861.69 490.13
  C 837.34 501.34 805.63 519.78 794.56 545.35
  C 785.04 567.31 791.94 593.22 809.19 609.56"
/>
</g>
<path fill="#000000" d="
  M 0.00 0.00
  L 369.06 0.00
  Q 391.64 0.85 413.93 4.08
  C 491.82 15.40 564.75 57.25 589.11 136.67
  Q 603.15 182.39 595.79 230.42
  C 588.41 278.54 561.26 318.73 520.23 344.44
  C 514.69 347.91 507.96 351.45 501.57 354.66
  A 0.38 0.37 41.3 0 0 501.62 355.35
  C 558.55 375.69 600.55 419.26 615.07 478.42
  Q 625.37 520.39 619.21 561.45
  C 600.49 686.23 486.02 736.90 372.25 736.98
  Q 286.02 737.04 0.00 736.99
  L 0.00 0.00
  Z
  M 408.54 254.29
  Q 421.77 238.23 424.89 217.50
  C 434.12 156.15 392.15 121.55 334.74 120.57
  C 280.72 119.64 226.56 120.23 172.50 120.27
  Q 172.00 120.27 172.00 120.76
  L 172.00 286.74
  Q 172.00 287.23 172.49 287.23
  Q 244.34 287.31 316.20 287.22
  C 349.16 287.18 386.08 281.57 408.54 254.29
  Z
  M 449.12 478.82
  C 439.04 430.67 403.22 404.95 355.91 400.63
  Q 349.78 400.07 335.93 400.05
  Q 254.24 399.92 172.48 400.03
  Q 172.00 400.03 172.00 400.52
  L 172.00 623.98
  A 0.50 0.50 0.0 0 0 172.50 624.48
  Q 253.19 624.55 333.94 624.46
  C 356.74 624.44 380.06 621.65 400.48 610.65
  C 448.59 584.72 459.58 528.83 449.12 478.82
  Z"
/>
<path fill="#ffffff" d="
  M 369.06 0.00
  L 1242.26 0.00
  L 1242.26 736.50
  Q 1242.26 737.00 1242.77 737.00
  L 1413.00 737.00
  Q 1413.50 737.00 1413.50 736.50
  L 1413.50 458.50
  Q 1413.50 457.99 1414.00 457.99
  L 1489.15 458.01
  Q 1490.90 458.01 1491.99 459.38
  L 1713.88 736.59
  A 1.11 1.10 -19.3 0 0 1714.74 737.00
  L 1912.76 737.00
  A 0.33 0.33 0.0 0 0 1913.02 736.47
  L 1689.99 457.96
  Q 1689.57 457.43 1690.23 457.28
  C 1777.84 437.71 1841.42 373.88 1856.56 284.91
  C 1871.23 198.65 1849.85 102.55 1775.40 48.85
  C 1727.82 14.53 1670.27 1.91 1612.56 0.00
  L 1920.00 0.00
  L 1920.00 1022.00
  L 0.00 1022.00
  L 0.00 1019.50
  L 1919.24 1019.50
  A 0.51 0.51 0.0 0 0 1919.75 1018.99
  L 1919.75 849.76
  Q 1919.75 849.25 1919.24 849.25
  L 0.00 849.25
  L 0.00 736.99
  Q 286.02 737.04 372.25 736.98
  C 486.02 736.90 600.49 686.23 619.21 561.45
  Q 625.37 520.39 615.07 478.42
  C 600.55 419.26 558.55 375.69 501.62 355.35
  A 0.38 0.37 41.3 0 1 501.57 354.66
  C 507.96 351.45 514.69 347.91 520.23 344.44
  C 561.26 318.73 588.41 278.54 595.79 230.42
  Q 603.15 182.39 589.11 136.67
  C 564.75 57.25 491.82 15.40 413.93 4.08
  Q 391.64 0.85 369.06 0.00
  Z
  M 901.27 341.92
  L 1072.52 342.47
  Q 1073.00 342.47 1073.00 341.98
  L 1073.00 229.25
  Q 1073.00 228.75 1072.50 228.75
  L 734.50 228.75
  Q 734.00 228.75 734.00 229.25
  L 734.00 339.71
  A 1.82 1.81 -66.5 0 0 734.48 340.94
  L 795.19 406.56
  A 0.30 0.30 0.0 0 1 795.10 407.04
  Q 777.36 415.33 759.71 424.01
  C 737.50 434.94 718.00 449.40 701.25 467.51
  Q 651.35 521.44 661.78 593.89
  C 669.58 648.09 706.13 696.26 756.08 718.52
  C 818.39 746.29 894.50 740.84 956.71 716.52
  C 978.00 708.20 997.76 695.99 1015.56 681.66
  Q 1015.95 681.35 1016.27 681.73
  L 1062.09 736.19
  Q 1062.36 736.50 1062.77 736.50
  L 1212.99 736.50
  A 0.28 0.28 0.0 0 0 1213.21 736.05
  L 1091.40 586.55
  A 0.76 0.76 0.0 0 1 1091.40 585.59
  L 1140.16 525.60
  Q 1140.51 525.18 1140.17 524.76
  L 1074.57 443.04
  A 0.43 0.43 0.0 0 0 1073.90 443.04
  L 1025.03 503.30
  Q 1024.73 503.66 1024.45 503.29
  L 901.00 342.48
  A 0.35 0.34 71.3 0 1 901.27 341.92
  Z"
/>
<path fill="#000000" d="
  M 1242.26 0.00
  L 1612.56 0.00
  C 1670.27 1.91 1727.82 14.53 1775.40 48.85
  C 1849.85 102.55 1871.23 198.65 1856.56 284.91
  C 1841.42 373.88 1777.84 437.71 1690.23 457.28
  Q 1689.57 457.43 1689.99 457.96
  L 1913.02 736.47
  A 0.33 0.33 0.0 0 1 1912.76 737.00
  L 1714.74 737.00
  A 1.11 1.10 -19.3 0 1 1713.88 736.59
  L 1491.99 459.38
  Q 1490.90 458.01 1489.15 458.01
  L 1414.00 457.99
  Q 1413.50 457.99 1413.50 458.50
  L 1413.50 736.50
  Q 1413.50 737.00 1413.00 737.00
  L 1242.77 737.00
  Q 1242.26 737.00 1242.26 736.50
  L 1242.26 0.00
  Z
  M 1693.08 254.57
  Q 1695.70 233.11 1691.27 212.00
  C 1680.17 158.99 1632.26 140.82 1583.75 140.71
  Q 1498.03 140.49 1412.53 140.47
  A 0.53 0.53 0.0 0 0 1412.00 141.00
  L 1412.00 337.73
  Q 1412.00 338.21 1412.48 338.21
  Q 1497.15 338.35 1581.81 338.15
  C 1636.40 338.03 1685.79 314.47 1693.08 254.57
  Z"
/>
<path fill="#ffffff" d="
  M 408.54 254.29
  C 386.08 281.57 349.16 287.18 316.20 287.22
  Q 244.34 287.31 172.49 287.23
  Q 172.00 287.23 172.00 286.74
  L 172.00 120.76
  Q 172.00 120.27 172.50 120.27
  C 226.56 120.23 280.72 119.64 334.74 120.57
  C 392.15 121.55 434.12 156.15 424.89 217.50
  Q 421.77 238.23 408.54 254.29
  Z"
/>
<path fill="#ffffff" d="
  M 1693.08 254.57
  C 1685.79 314.47 1636.40 338.03 1581.81 338.15
  Q 1497.15 338.35 1412.48 338.21
  Q 1412.00 338.21 1412.00 337.73
  L 1412.00 141.00
  A 0.53 0.53 0.0 0 1 1412.53 140.47
  Q 1498.03 140.49 1583.75 140.71
  C 1632.26 140.82 1680.17 158.99 1691.27 212.00
  Q 1695.70 233.11 1693.08 254.57
  Z"
/>
<path fill="#000000" d="
  M 901.27 341.92
  A 0.35 0.34 71.3 0 0 901.00 342.48
  L 1024.45 503.29
  Q 1024.73 503.66 1025.03 503.30
  L 1073.90 443.04
  A 0.43 0.43 0.0 0 1 1074.57 443.04
  L 1140.17 524.76
  Q 1140.51 525.18 1140.16 525.60
  L 1091.40 585.59
  A 0.76 0.76 0.0 0 0 1091.40 586.55
  L 1213.21 736.05
  A 0.28 0.28 0.0 0 1 1212.99 736.50
  L 1062.77 736.50
  Q 1062.36 736.50 1062.09 736.19
  L 1016.27 681.73
  Q 1015.95 681.35 1015.56 681.66
  C 997.76 695.99 978.00 708.20 956.71 716.52
  C 894.50 740.84 818.39 746.29 756.08 718.52
  C 706.13 696.26 669.58 648.09 661.78 593.89
  Q 651.35 521.44 701.25 467.51
  C 718.00 449.40 737.50 434.94 759.71 424.01
  Q 777.36 415.33 795.10 407.04
  A 0.30 0.30 0.0 0 0 795.19 406.56
  L 734.48 340.94
  A 1.82 1.81 -66.5 0 1 734.00 339.71
  L 734.00 229.25
  Q 734.00 228.75 734.50 228.75
  L 1072.50 228.75
  Q 1073.00 228.75 1073.00 229.25
  L 1073.00 341.98
  Q 1073.00 342.47 1072.52 342.47
  L 901.27 341.92
  Z
  M 809.19 609.56
  C 832.86 631.99 873.07 636.51 901.99 622.60
  Q 924.93 611.56 946.30 597.58
  Q 946.81 597.24 946.44 596.77
  L 862.72 490.38
  Q 862.30 489.85 861.69 490.13
  C 837.34 501.34 805.63 519.78 794.56 545.35
  C 785.04 567.31 791.94 593.22 809.19 609.56
  Z"
/>
<path fill="#ffffff" d="
  M 355.91 400.63
  C 403.22 404.95 439.04 430.67 449.12 478.82
  C 459.58 528.83 448.59 584.72 400.48 610.65
  C 380.06 621.65 356.74 624.44 333.94 624.46
  Q 253.19 624.55 172.50 624.48
  A 0.50 0.50 0.0 0 1 172.00 623.98
  L 172.00 400.52
  Q 172.00 400.03 172.48 400.03
  Q 254.24 399.92 335.93 400.05
  Q 349.78 400.07 355.91 400.63
  Z"
/>
<path fill="#ffffff" d="
  M 809.19 609.56
  C 791.94 593.22 785.04 567.31 794.56 545.35
  C 805.63 519.78 837.34 501.34 861.69 490.13
  Q 862.30 489.85 862.72 490.38
  L 946.44 596.77
  Q 946.81 597.24 946.30 597.58
  Q 924.93 611.56 901.99 622.60
  C 873.07 636.51 832.86 631.99 809.19 609.56
  Z"
/>
<path fill="#ff8800" d="
  M 0.00 1019.50
  L 0.00 849.25
  L 1919.24 849.25
  Q 1919.75 849.25 1919.75 849.76
  L 1919.75 1018.99
  A 0.51 0.51 0.0 0 1 1919.24 1019.50
  L 0.00 1019.50
  Z"
/>
</svg>
